<?xml version="1.0" encoding="iso-8859-1"?>
<!-- Generator: Adobe Illustrator 19.0.0, SVG Export Plug-In . SVG Version: 6.00 Build 0)  -->
<svg version="1.1" id="Layer_1" xmlns="http://www.w3.org/2000/svg" xmlns:xlink="http://www.w3.org/1999/xlink" x="0px" y="0px"
	 viewBox="0 0 460 460" style="enable-background:new 0 0 460 460;" xml:space="preserve">
<g id="XMLID_2784_">
	<path id="XMLID_854_" style="fill:#94AEAF;" d="M460,10v11.717c0,5.304-2.107,10.391-5.858,14.142L349.289,140.711
		C330.536,159.464,305.1,170,278.579,170H230h-48.579c-26.521,0-51.957-10.536-70.71-29.289L5.858,35.859
		C2.107,32.108,0,27.021,0,21.717V10C0,4.477,4.477,0,10,0h111.065c21.748,0,39.073,17.807,38.937,39.554
		C160,39.703,160,39.851,160,40c0,38.66,31.34,70,70,70s70-31.34,70-70c0-0.149,0-0.297-0.001-0.446
		C299.862,17.807,317.187,0,338.935,0H450C455.523,0,460,4.477,460,10z"/>
	<path id="XMLID_855_" style="fill:#749193;" d="M200,170L200,170h-18.579c-26.522,0-51.957-10.536-70.71-29.289L27.07,57.071
		C20.77,50.771,25.232,40,34.141,40h56.924c21.625,0,39.155,17.619,38.939,39.243C130.001,79.495,130,79.747,130,80
		c0,32.685,22.401,60.138,52.688,67.843C192.849,150.428,200,159.515,200,170z"/>
	<path id="XMLID_925_" style="fill:#749193;" d="M432.93,57.071l-83.641,83.64C330.536,159.464,305.1,170,278.579,170H260l0,0
		c0-10.485,7.151-19.572,17.312-22.157C307.599,140.138,330,112.685,330,80c0-0.253-0.001-0.505-0.004-0.757
		C329.78,57.619,347.31,40,368.935,40h56.924C434.768,40,439.229,50.771,432.93,57.071z"/>
	<path id="XMLID_928_" style="fill:#9B9B9B;" d="M190,40c0-22.091,17.909-40,40-40s40,17.909,40,40
		c0,14.956-8.214,27.986-20.371,34.849l-9.379,375.154C240.111,455.564,235.563,460,230,460s-10.111-4.436-10.25-9.997
		l-9.379-375.154C198.214,67.986,190,54.956,190,40z"/>
	<path id="XMLID_1009_" style="fill:#DDDDDD;" d="M219.75,450.003L210,60h20v400l0,0C224.437,460,219.889,455.564,219.75,450.003z"
		/>
	<path id="XMLID_1057_" style="fill:#53686B;" d="M270,40c0,22.091-17.909,40-40,40s-40-17.909-40-40s17.909-40,40-40
		S270,17.909,270,40z"/>
	<path id="XMLID_1095_" style="fill:#749193;" d="M250,20c0,11.046-8.954,20-20,20s-20-8.954-20-20s8.954-20,20-20S250,8.954,250,20
		z"/>
	<path id="XMLID_1100_" style="fill:#314142;" d="M367.793,409.235L367.793,409.235v10c0,0.101-0.007,0.2-0.012,0.299
		c0.002,0.156,0.012,0.31,0.012,0.466v10c0,16.569-13.431,30-30,30h-58.315c-7.987,0-12.751-8.901-8.32-15.547l0.729-1.094
		c5.564-8.346,14.931-13.359,24.962-13.359h30.944c5.523,0,10-4.477,10-10v-20.464l-249.25-80.302C71.528,313.73,60,297.884,60,280
		v-20v-10v-20l0,0c0-16.568,13.431-30,30-30h30c11.046,0,20,8.954,20,20l0,0h15c2.761,0,5,2.239,5,5s-2.239,5-5,5h-25h-10H90v59.698
		L339.25,370C356.266,375.505,367.793,391.351,367.793,409.235z"/>
	<path id="XMLID_1132_" style="fill:#AA684B;" d="M160,225c0,2.761-2.239,5-5,5h-35v-10h35C157.761,220,160,222.239,160,225z"/>
	<path id="XMLID_1133_" style="fill:#53686B;" d="M367.793,409.235L367.793,409.235v10c0,0.258-0.024,0.509-0.03,0.765h0.03v10
		c-0.921,0-1.668-0.747-1.668-1.668v-0.694c-3.368-11.598-11.672-21.311-22.909-26.354L88.543,319.235
		C71.528,313.73,60,297.884,60,280v-20v-10v-20l0,0c0-16.568,13.431-30,30-30h30c11.046,0,20,8.954,20,20l0,0
		c0,5.523-4.477,10-10,10H90c-14.997,0-27.423,11.005-29.645,25.38c1.854,14.252,10.973,26.597,24.117,32.537L339.25,370
		C356.266,375.505,367.793,391.351,367.793,409.235z"/>
	<path id="XMLID_899_" style="fill:#7C7C7C;" d="M217.345,353.879l25.512-8.219l-0.756,30.249l-24.011,7.736L217.345,353.879z"/>
	<path id="XMLID_900_" style="fill:#B7B7B7;" d="M230,379.807l-11.911,3.837l-0.744-29.766L230,349.802V379.807z"/>
	<path id="XMLID_896_" style="fill:#6D8989;" d="M400,230L400,230v20v10v20c0,17.884-11.528,33.73-28.543,39.235l-249.25,80.302V420
		c0,5.523,4.477,10,10,10h30.944c10.031,0,19.398,5.013,24.962,13.359l0.729,1.094c4.43,6.646-0.334,15.547-8.32,15.547h-58.315
		c-16.569,0-30-13.431-30-30v-10c0-0.156,0.009-0.31,0.012-0.466c-0.005-0.1-0.012-0.199-0.012-0.299v-10l0,0
		c0-17.884,11.528-33.729,28.543-39.235L370,289.698V230h-30h-10h-25c-2.761,0-5-2.239-5-5s2.239-5,5-5h15l0,0
		c0-11.046,8.954-20,20-20h30C386.569,200,400,213.431,400,230z"/>
	<path id="XMLID_957_" style="fill:#AA684B;" d="M340,220v10h-35c-2.761,0-5-2.239-5-5s2.239-5,5-5H340z"/>
	<path id="XMLID_958_" style="fill:#94AEAF;" d="M400,230L400,230v20v10v20c0,17.884-11.528,33.73-28.543,39.235l-254.673,82.049
		c-11.237,5.043-19.541,14.756-22.909,26.354v0.694c0,0.921-0.747,1.668-1.668,1.668v-10h0.03c-0.007-0.256-0.03-0.508-0.03-0.765
		v-10l0,0c0-17.884,11.528-33.729,28.543-39.235l254.779-82.083c13.144-5.94,22.263-18.285,24.117-32.537
		C397.423,241.005,384.997,230,370,230h-40c-5.523,0-10-4.477-10-10l0,0c0-11.046,8.954-20,20-20h30
		C386.569,200,400,213.431,400,230z"/>
</g>
<g>
</g>
<g>
</g>
<g>
</g>
<g>
</g>
<g>
</g>
<g>
</g>
<g>
</g>
<g>
</g>
<g>
</g>
<g>
</g>
<g>
</g>
<g>
</g>
<g>
</g>
<g>
</g>
<g>
</g>
</svg>
