<?xml version="1.0" encoding="iso-8859-1"?>
<!-- Generator: Adobe Illustrator 19.0.0, SVG Export Plug-In . SVG Version: 6.00 Build 0)  -->
<svg version="1.1" id="Layer_1" xmlns="http://www.w3.org/2000/svg" xmlns:xlink="http://www.w3.org/1999/xlink" x="0px" y="0px"
	 viewBox="0 0 460 460" style="enable-background:new 0 0 460 460;" xml:space="preserve">
<g id="XMLID_3067_">
	<path id="XMLID_2012_" style="fill:#DAE5EB;" d="M370,110v30c0,5.523,4.477,10,10,10h10c11.046,0,20,8.954,20,20v40v170v60
		c0,11.046-8.954,20-20,20H290h-60h-60H70c-11.046,0-20-8.954-20-20v-60V210v-40c0-11.046,8.954-20,20-20h10c5.523,0,10-4.477,10-10
		v-30V90H70c-11.046,0-20-8.954-20-20V20C50,8.954,58.954,0,70,0h100h60h60h100c11.046,0,20,8.954,20,20v50c0,11.046-8.954,20-20,20
		h-20V110z"/>
	<path id="XMLID_2022_" style="fill:#C8D3D6;" d="M170,0v460H70c-11.046,0-20-8.954-20-20v-60V210v-40c0-11.046,8.954-20,20-20h10
		c5.523,0,10-4.477,10-10v-30V90H70c-11.046,0-20-8.954-20-20V20C50,8.954,58.954,0,70,0H170z"/>
	<path id="XMLID_2036_" style="fill:#C0C7C9;" d="M390,0c11.046,0,20,8.954,20,20v50c0,11.046-8.954,20-20,20h-20v20v30
		c0,5.523,4.477,10,10,10h10c11.046,0,20,8.954,20,20v40v170v60c0,11.046-8.954,20-20,20H290V0H390z"/>
	<path id="XMLID_1933_" style="fill:#AC3E0C;" d="M50,380h180v80H70c-11.046,0-20-8.954-20-20V380z"/>
	<path id="XMLID_2009_" style="fill:#8B2E15;" d="M410,380v60c0,11.046-8.954,20-20,20H230v-80H410z"/>
	<path id="XMLID_1750_" style="fill:#CC6A11;" d="M290,460H170v-80h120V460z"/>
	<path id="XMLID_1869_" style="fill:#AC3E0C;" d="M230,90v120H50v-40c0-11.046,8.954-20,20-20h10c5.523,0,10-4.477,10-10V90H230z"/>
	<path id="XMLID_1812_" style="fill:#8B2E15;" d="M410,210H230V90h140v50c0,5.523,4.477,10,10,10h10c11.046,0,20,8.954,20,20V210z"
		/>
	<path id="XMLID_1747_" style="fill:#CC6A11;" d="M290,210H170V90h120V210z"/>
	<path id="XMLID_1722_" style="fill:#BC5C31;" d="M310,170H150c-11.046,0-20-8.954-20-20l0,0h200l0,0
		C330,161.046,321.046,170,310,170z"/>
	<path id="XMLID_1720_" style="fill:#DB9261;" d="M290,170H170v-20h120V170z"/>
	<path id="XMLID_1745_" style="fill:#7F2A16;" d="M370,90v20h-80H170H90V90h80h120H370z"/>
	<path id="XMLID_1405_" style="fill:#B25916;" d="M290,110H170V90h120V110z"/>
	<path id="XMLID_1337_" style="fill:#BC9999;" d="M330,315c0,5.523-4.477,10-10,10H140c-5.523,0-10-4.477-10-10s4.477-10,10-10h180
		C325.523,305,330,309.477,330,315z"/>
	<path id="XMLID_1303_" style="fill:#D6B4B4;" d="M170,305h120v20H170V305z"/>
	<path id="XMLID_863_" style="fill:#BC9999;" d="M350,275c0,5.523-4.477,10-10,10h-40H160h-40c-5.523,0-10-4.477-10-10
		s4.477-10,10-10h40h140h40C345.523,265,350,269.477,350,275z"/>
	<path id="XMLID_861_" style="fill:#D6B4B4;" d="M290,265v20H170v-20H290z"/>
</g>
<g>
</g>
<g>
</g>
<g>
</g>
<g>
</g>
<g>
</g>
<g>
</g>
<g>
</g>
<g>
</g>
<g>
</g>
<g>
</g>
<g>
</g>
<g>
</g>
<g>
</g>
<g>
</g>
<g>
</g>
</svg>
