<?xml version="1.0" encoding="iso-8859-1"?>
<!-- Generator: Adobe Illustrator 19.0.0, SVG Export Plug-In . SVG Version: 6.00 Build 0)  -->
<svg version="1.1" id="Layer_1" xmlns="http://www.w3.org/2000/svg" xmlns:xlink="http://www.w3.org/1999/xlink" x="0px" y="0px"
	 viewBox="0 0 460 460" style="enable-background:new 0 0 460 460;" xml:space="preserve">
<g id="XMLID_2828_">
	<path id="XMLID_1344_" style="fill:#727272;" d="M400,20v420c0,11.046-8.954,20-20,20h-10h-10H100H90H80c-11.046,0-20-8.954-20-20
		V20C60,8.954,68.954,0,80,0h10h10h260h10h10C391.046,0,400,8.954,400,20z"/>
	<path id="XMLID_1320_" style="fill:#4F4F4F;" d="M278.915,460H99.784h-10h-10c-9.628,0-17.663-6.805-19.567-15.867l339.567-339.568
		v234.566L278.915,460z"/>
	<path id="XMLID_1319_" style="fill:#3D3D3D;" d="M400,20v420c0,11.046-8.954,20-20,20h-10c11.046,0,20-8.954,20-20V20
		c0-11.046-8.954-20-20-20h10C391.046,0,400,8.954,400,20z"/>
	<path id="XMLID_1318_" style="fill:#898989;" d="M90,460H80c-11.046,0-20-8.954-20-20V20C60,8.954,68.954,0,80,0h10
		C78.954,0,70,8.954,70,20v420C70,451.046,78.954,460,90,460z"/>
	<path id="XMLID_850_" style="fill:#848484;" d="M255,400c0,8.284-6.716,15-15,15h-20c-8.284,0-15-6.716-15-15s6.716-15,15-15h20
		C248.284,385,255,391.716,255,400z"/>
	<path id="XMLID_848_" style="fill:#999999;" d="M205,400h50c0,8.284-6.716,15-15,15h-20C211.716,415,205,408.284,205,400z"/>
	<path id="XMLID_845_" style="fill:#B0CCBF;" d="M350,340H110c-5.523,0-10-4.477-10-10V40c0-5.523,4.477-10,10-10h240
		c5.523,0,10,4.477,10,10v290C360,335.523,355.523,340,350,340z"/>
	<path id="XMLID_843_" style="fill:#C7E2D6;" d="M100,330V40c0-5.523,4.477-10,10-10h240c5.523,0,10,4.477,10,10v104.349
		L164.349,340H110C104.477,340,100,335.523,100,330z"/>
	<path id="XMLID_841_" style="fill:#B0CCBF;" d="M110,50v290c-5.523,0-10-4.477-10-10V40c0-5.523,4.477-10,10-10h240
		c5.523,0,10,4.477,10,10H120C114.477,40,110,44.477,110,50z"/>
	<path id="XMLID_838_" style="fill:#DAEDE3;" d="M230,265L230,265c-44.183,0-80-35.817-80-80l0,0c0-44.183,35.817-80,80-80l0,0
		c44.183,0,80,35.817,80,80l0,0C310,229.183,274.183,265,230,265z"/>
	<path id="XMLID_837_" style="fill:#F2F9F5;" d="M309.369,194.98l-69.389,69.389C236.71,264.78,233.381,265,230,265l0,0
		c-44.183,0-80-35.817-80-80l0,0c0-44.183,35.817-80,80-80l0,0c44.183,0,80,35.817,80,80l0,0
		C310,188.382,309.78,191.711,309.369,194.98z"/>
	<path id="XMLID_311_" style="fill:#C6524A;" d="M275,185c0,8.284-6.716,15-15,15h-15v15c0,8.284-6.716,15-15,15s-15-6.716-15-15
		v-15h-15c-8.284,0-15-6.716-15-15s6.716-15,15-15h15v-15c0-8.284,6.716-15,15-15s15,6.716,15,15v15h15
		C268.284,170,275,176.716,275,185z"/>
	<path id="XMLID_233_" style="fill:#D3625F;" d="M215,200.23V200h-15c-8.284,0-15-6.716-15-15s6.716-15,15-15h15v-15
		c0-8.284,6.716-15,15-15s15,6.716,15,15v15h0.23L215,200.23z"/>
</g>
<g>
</g>
<g>
</g>
<g>
</g>
<g>
</g>
<g>
</g>
<g>
</g>
<g>
</g>
<g>
</g>
<g>
</g>
<g>
</g>
<g>
</g>
<g>
</g>
<g>
</g>
<g>
</g>
<g>
</g>
</svg>
