<?xml version="1.0" encoding="iso-8859-1"?>
<!-- Generator: Adobe Illustrator 19.0.0, SVG Export Plug-In . SVG Version: 6.00 Build 0)  -->
<svg version="1.1" id="Layer_1" xmlns="http://www.w3.org/2000/svg" xmlns:xlink="http://www.w3.org/1999/xlink" x="0px" y="0px"
	 viewBox="0 0 460 460" style="enable-background:new 0 0 460 460;" xml:space="preserve">
<g id="XMLID_2745_">
	<path id="XMLID_1144_" style="fill:#EBC9A9;" d="M460,85v110c0,46.944-38.056,85-85,85c-30.376,0-55-24.624-55-55v-35v-20
		l-10,4.444l0,0l-50,22.222V430c0,16.569-13.431,30-30,30s-30-13.431-30-30V196.667L140,170v20v35c0,30.376-24.624,55-55,55
		c-46.944,0-85-38.056-85-85V85C0,38.056,38.056,0,85,0c30.376,0,55,24.624,55,55v35v20l90,40l90-40V90V55c0-30.376,24.624-55,55-55
		C421.944,0,460,38.056,460,85z"/>
	<path id="XMLID_1207_" style="fill:#CE956A;" d="M140,55v55c-16.569,0-30,13.431-30,30l0,0c0,16.569,13.431,30,30,30v55
		c0,30.376-24.624,55-55,55l0,0c-46.944,0-85-38.056-85-85V85C0,38.056,38.056,0,85,0l0,0C115.376,0,140,24.624,140,55z"/>
	<path id="XMLID_1317_" style="fill:#C18E6C;" d="M0,140h110c0,16.569,13.431,30,30,30v55c0,30.376-24.624,55-55,55l0,0
		c-46.944,0-85-38.056-85-85V140z"/>
	<path id="XMLID_1310_" style="fill:#D79E73;" d="M134.067,30.16C137.853,37.624,140,46.059,140,55v55c-16.569,0-30,13.431-30,30
		l0,0c0,16.569,13.431,30,30,30v55c0,8.941-2.147,17.376-5.933,24.84C76.075,246.757,30,198.761,30,140l0,0
		C30,81.239,76.075,33.243,134.067,30.16z"/>
	<path id="XMLID_1296_" style="fill:#E2AC7E;" d="M110,140L110,140c0,16.569,13.431,30,30,30v40l0,0c-38.66,0-70-31.34-70-70l0,0
		c0-38.66,31.34-70,70-70l0,0v40C123.431,110,110,123.431,110,140z"/>
	<path id="XMLID_1213_" style="fill:#EAB794;" d="M41.987,100.002c-1.532,0-3.087-0.353-4.544-1.098
		c-4.918-2.514-6.866-8.538-4.353-13.456c11.421-22.341,30.016-40.935,52.357-52.355c4.922-2.513,10.942-0.564,13.456,4.353
		s0.564,10.942-4.353,13.456c-18.628,9.521-34.131,25.023-43.652,43.65C49.13,98.012,45.623,100.002,41.987,100.002z"/>
	<path id="XMLID_1201_" style="fill:#D8B58B;" d="M230,460V150l90-40V90V55c0-30.376,24.624-55,55-55c46.944,0,85,38.056,85,85v110
		c0,46.944-38.056,85-85,85c-30.376,0-55-24.624-55-55v-35v-20l-10,4.444l-50,22.222V430C260,446.569,246.569,460,230,460z"/>
	<path id="XMLID_1283_" style="fill:#CE956A;" d="M460,85v110c0,46.944-38.056,85-85,85l0,0c-30.376,0-55-24.624-55-55v-55
		c16.569,0,30-13.431,30-30l0,0c0-16.568-13.431-30-30-30V55c0-30.376,24.624-55,55-55l0,0C421.944,0,460,38.056,460,85z"/>
	<path id="XMLID_1219_" style="fill:#C18E6C;" d="M460,195c0,46.944-38.056,85-85,85l0,0c-30.376,0-55-24.624-55-55v-55
		c16.569,0,30-13.431,30-30h110V195z"/>
	<path id="XMLID_1197_" style="fill:#D79E73;" d="M430,140L430,140c0,58.761-46.075,106.757-104.067,109.84
		C322.147,242.376,320,233.941,320,225v-55c16.569,0,30-13.431,30-30l0,0c0-16.568-13.431-30-30-30V55
		c0-8.941,2.147-17.376,5.933-24.84C383.925,33.243,430,81.239,430,140z"/>
	<path id="XMLID_1182_" style="fill:#E2AC7E;" d="M320,110V70l0,0c38.66,0,70,31.34,70,70l0,0c0,38.66-31.34,70-70,70l0,0v-40
		c16.569,0,30-13.431,30-30l0,0C350,123.431,336.569,110,320,110z"/>
	<path id="XMLID_1443_" style="fill:#EAB794;" d="M418.013,100.002c-3.637,0-7.143-1.99-8.912-5.45
		c-9.521-18.627-25.024-34.129-43.652-43.65c-4.917-2.514-6.866-8.538-4.353-13.456c2.514-4.918,8.538-6.867,13.456-4.353
		c22.342,11.42,40.937,30.014,52.357,52.355c2.514,4.917,0.565,10.942-4.353,13.456C421.1,99.649,419.544,100.002,418.013,100.002z"
		/>
</g>
<g>
</g>
<g>
</g>
<g>
</g>
<g>
</g>
<g>
</g>
<g>
</g>
<g>
</g>
<g>
</g>
<g>
</g>
<g>
</g>
<g>
</g>
<g>
</g>
<g>
</g>
<g>
</g>
<g>
</g>
</svg>
