<?xml version="1.0" encoding="iso-8859-1"?>
<!-- Generator: Adobe Illustrator 19.0.0, SVG Export Plug-In . SVG Version: 6.00 Build 0)  -->
<svg version="1.1" id="Layer_1" xmlns="http://www.w3.org/2000/svg" xmlns:xlink="http://www.w3.org/1999/xlink" x="0px" y="0px"
	 viewBox="0 0 512 512" style="enable-background:new 0 0 512 512;" xml:space="preserve">
<g>
	<path style="fill:#2D527C;" d="M155.044,262.728c-8.034,0-14.548-6.515-14.548-14.548v-93.54c0-8.034,6.515-14.548,14.548-14.548
		s14.548,6.515,14.548,14.548v93.54C169.593,256.213,163.079,262.728,155.044,262.728z"/>
	<path style="fill:#2D527C;" d="M201.814,215.957h-93.538c-8.034,0-14.548-6.515-14.548-14.548c0-8.034,6.515-14.548,14.548-14.548
		h93.538c8.034,0,14.548,6.515,14.548,14.548C216.363,209.442,209.848,215.957,201.814,215.957z"/>
	<path style="fill:#2D527C;" d="M474.253,395.46H37.749C16.934,395.46,0,378.527,0,357.711V89.566
		C0,68.75,16.934,51.817,37.749,51.817h245.555c20.795,0,37.73,16.917,37.75,37.709c0.009,8.034-6.499,14.554-14.534,14.563
		c-0.004,0-0.01,0-0.015,0c-8.029,0-14.54-6.505-14.548-14.534c-0.004-4.765-3.887-8.64-8.653-8.64H37.749
		c-4.77,0-8.652,3.882-8.652,8.652v268.145c0,4.77,3.881,8.652,8.652,8.652h436.504c4.77,0,8.652-3.882,8.652-8.652v-118.83
		c0-3.823-2.449-7.143-6.093-8.263c-7.682-2.36-11.995-10.498-9.637-18.178c2.36-7.68,10.495-11.994,18.178-9.637
		C501.292,207.7,512,222.198,512,238.882v118.83C512.003,378.527,495.069,395.46,474.253,395.46z"/>
</g>
<path style="fill:#CEE8FA;" d="M481.085,216.71c-2.153-0.669-4.447-1.031-6.832-1.031H330.791
	c-13.418,0-24.284-10.879-24.284-24.297V89.568c0-0.013,0-0.013,0-0.026h78.961c23.756,0,45.205,15.081,54.433,38.269
	L481.085,216.71z"/>
<path style="fill:#2D527C;" d="M481.083,231.259c-1.442,0-2.895-0.212-4.318-0.656c-0.802-0.249-1.647-0.375-2.512-0.375H330.791
	c-21.412,0-38.831-17.426-38.831-38.844V89.566c0-8.034,6.515-14.575,14.548-14.575h78.961c29.673,0,56.238,18.453,67.794,47.048
	l40.641,87.732c1.122,2.062,1.757,4.426,1.757,6.94c0,7.959-6.39,14.425-14.319,14.547
	C481.257,231.259,481.169,231.259,481.083,231.259z M321.056,104.09v87.294c0,5.374,4.367,9.747,9.734,9.747h127.043l-31.132-67.205
	c-0.111-0.242-0.217-0.487-0.316-0.735c-7.037-17.678-23.097-29.101-40.916-29.101L321.056,104.09L321.056,104.09z"/>
<circle style="fill:#CEE8FA;" cx="138.331" cy="382.772" r="62.863"/>
<path style="fill:#2D527C;" d="M138.334,460.183c-42.686,0-77.413-34.727-77.413-77.413s34.727-77.415,77.413-77.415
	s77.415,34.728,77.415,77.415S181.02,460.183,138.334,460.183z M138.334,334.451c-26.642,0-48.317,21.674-48.317,48.318
	c0,26.642,21.674,48.317,48.317,48.317s48.318-21.674,48.318-48.317C186.652,356.125,164.976,334.451,138.334,334.451z"/>
<circle style="fill:#CEE8FA;" cx="373.672" cy="382.772" r="62.863"/>
<path style="fill:#2D527C;" d="M373.669,460.183c-42.686,0-77.415-34.727-77.415-77.413s34.728-77.415,77.415-77.415
	s77.413,34.728,77.413,77.415S416.355,460.183,373.669,460.183z M373.669,334.451c-26.642,0-48.318,21.674-48.318,48.318
	c0,26.642,21.674,48.317,48.318,48.317c26.642,0,48.317-21.674,48.317-48.317C421.986,356.125,400.31,334.451,373.669,334.451z"/>
<g>
</g>
<g>
</g>
<g>
</g>
<g>
</g>
<g>
</g>
<g>
</g>
<g>
</g>
<g>
</g>
<g>
</g>
<g>
</g>
<g>
</g>
<g>
</g>
<g>
</g>
<g>
</g>
<g>
</g>
</svg>
