<?xml version="1.0" encoding="iso-8859-1"?>
<!-- Generator: Adobe Illustrator 19.0.0, SVG Export Plug-In . SVG Version: 6.00 Build 0)  -->
<svg version="1.1" id="Layer_1" xmlns="http://www.w3.org/2000/svg" xmlns:xlink="http://www.w3.org/1999/xlink" x="0px" y="0px"
	 viewBox="0 0 512 512" style="enable-background:new 0 0 512 512;" xml:space="preserve">
<path style="fill:#2D527C;" d="M211.184,512h-107.03c-17.607,0-31.931-14.326-31.931-31.933v-180.98
	c0-23.251,9.662-45.66,26.572-61.782c-8.827-12.318-13.483-26.818-13.483-42.051c0-24.047,11.799-46.163,31.295-59.578v-94.62
	c0-11.527,4.921-22.605,13.498-30.392c8.563-7.772,20.068-11.589,31.576-10.474c21.122,2.048,37.049,19.884,37.049,41.489v29.739
	c0,7.758-6.29,14.048-14.048,14.048s-14.048-6.289-14.048-14.048v-29.74c0-6.949-5.123-12.891-11.665-13.525
	c-3.69-0.357-7.233,0.82-9.981,3.314c-2.724,2.472-4.287,5.969-4.287,9.589v102.523c0,5.226-2.899,10.019-7.528,12.443
	c-14.66,7.68-23.767,22.712-23.767,39.229c0,9.687,3.075,18.883,8.892,26.596c8.156,10.812,6.786,25.825-3.187,34.922
	c-11.945,10.894-18.796,26.318-18.796,42.317v180.981c0,2.116,1.722,3.838,3.836,3.838h107.03c2.116,0,3.836-1.722,3.836-3.838
	v-180.98c0-15.999-6.851-31.423-18.796-42.317c-9.974-9.097-11.342-24.11-3.187-34.922c5.817-7.712,8.892-16.909,8.892-26.596
	c0-16.517-9.107-31.548-23.768-39.229c-4.629-2.425-7.528-7.219-7.528-12.445l0.001-17.374c0-7.757,6.29-14.046,14.048-14.046
	c0,0,0,0,0.001,0c7.757,0,14.046,6.29,14.046,14.049l-0.001,9.468c19.498,13.414,31.296,35.53,31.296,59.577
	c0,15.233-4.655,29.733-13.483,42.051c16.912,16.122,26.572,38.53,26.572,61.782v180.981C243.117,497.675,228.793,512,211.184,512z"
	/>
<path style="fill:#CEE8FA;" d="M159.78,434.786H86.27v-121.65h73.509c12.801,0,23.178,10.377,23.178,23.178v75.293
	C182.959,424.408,172.58,434.786,159.78,434.786z"/>
<g>
	<path style="fill:#2D527C;" d="M159.78,448.833H86.271c-7.757,0-14.048-6.289-14.048-14.048v-121.65
		c0-7.758,6.29-14.048,14.048-14.048h73.509c20.526,0,37.226,16.7,37.226,37.226v75.293
		C197.006,432.134,180.306,448.833,159.78,448.833z M100.318,420.738h59.462c5.035,0,9.131-4.096,9.131-9.131v-75.293
		c0-5.035-4.096-9.131-9.131-9.131h-59.462V420.738z"/>
	<path style="fill:#2D527C;" d="M407.85,512H300.82c-17.607,0-31.931-14.326-31.931-31.933v-180.98
		c0-23.251,9.662-45.66,26.572-61.782c-8.827-12.318-13.483-26.818-13.483-42.051c0-24.047,11.799-46.163,31.295-59.578v-94.62
		c0-11.527,4.921-22.605,13.498-30.392c8.562-7.772,20.071-11.589,31.576-10.474c21.122,2.048,37.049,19.884,37.049,41.489v29.739
		c0,7.758-6.29,14.048-14.048,14.048s-14.047-6.289-14.047-14.047v-29.74c0-6.949-5.123-12.891-11.665-13.525
		c-3.692-0.357-7.233,0.82-9.981,3.314c-2.724,2.472-4.287,5.969-4.287,9.589V143.58c0,5.226-2.899,10.019-7.528,12.443
		c-14.66,7.68-23.767,22.712-23.767,39.229c0,9.687,3.075,18.883,8.892,26.596c8.156,10.812,6.786,25.825-3.187,34.922
		c-11.945,10.894-18.796,26.318-18.796,42.317v180.981c0,2.116,1.722,3.838,3.836,3.838h107.03c2.116,0,3.836-1.722,3.836-3.838
		V299.087c0-15.999-6.851-31.423-18.796-42.317c-9.974-9.097-11.342-24.11-3.187-34.922c5.817-7.712,8.892-16.909,8.892-26.596
		c0-16.517-9.107-31.548-23.768-39.229c-4.629-2.425-7.528-7.219-7.528-12.445l0.001-17.374c0-7.757,6.29-14.046,14.048-14.046
		c0,0,0,0,0.001,0c7.757,0,14.046,6.29,14.046,14.049l-0.001,9.468c19.498,13.414,31.296,35.53,31.296,59.577
		c0,15.233-4.655,29.733-13.483,42.051c16.912,16.122,26.572,38.53,26.572,61.782v180.981C439.783,497.675,425.458,512,407.85,512z"
		/>
</g>
<path style="fill:#CEE8FA;" d="M356.446,434.786h-73.509v-121.65h73.509c12.802,0,23.178,10.377,23.178,23.178v75.293
	C379.624,424.408,369.246,434.786,356.446,434.786z"/>
<g>
	<path style="fill:#2D527C;" d="M356.446,448.833h-73.509c-7.757,0-14.048-6.289-14.048-14.048v-121.65
		c0-7.758,6.29-14.048,14.048-14.048h73.509c20.526,0,37.226,16.7,37.226,37.226v75.293
		C393.672,432.134,376.972,448.833,356.446,448.833z M296.984,420.738h59.462c5.035,0,9.131-4.096,9.131-9.131v-75.293
		c0-5.035-4.096-9.131-9.131-9.131h-59.462V420.738z"/>
	<path style="fill:#2D527C;" d="M142.217,252.691h-28.816c-7.757,0-14.048-6.289-14.048-14.048c0-7.758,6.29-14.048,14.048-14.048
		h28.816c7.757,0,14.048,6.289,14.048,14.048C156.264,246.402,149.974,252.691,142.217,252.691z"/>
	<path style="fill:#2D527C;" d="M338.882,252.691h-30.694c-7.757,0-14.048-6.289-14.048-14.048c0-7.758,6.29-14.048,14.048-14.048
		h30.694c7.757,0,14.048,6.289,14.048,14.048C352.929,246.402,346.639,252.691,338.882,252.691z"/>
</g>
<g>
</g>
<g>
</g>
<g>
</g>
<g>
</g>
<g>
</g>
<g>
</g>
<g>
</g>
<g>
</g>
<g>
</g>
<g>
</g>
<g>
</g>
<g>
</g>
<g>
</g>
<g>
</g>
<g>
</g>
</svg>
