<?xml version="1.0" encoding="iso-8859-1"?>
<!-- Generator: Adobe Illustrator 19.0.0, SVG Export Plug-In . SVG Version: 6.00 Build 0)  -->
<svg version="1.1" id="Layer_1" xmlns="http://www.w3.org/2000/svg" xmlns:xlink="http://www.w3.org/1999/xlink" x="0px" y="0px"
	 viewBox="0 0 512.002 512.002" style="enable-background:new 0 0 512.002 512.002;" xml:space="preserve">
<path style="fill:#CEE8FA;" d="M256,415.261l-48.47,48.472c-43.978,43.978-115.282,43.978-159.26,0l0,0
	c-43.98-43.98-43.978-115.282,0-159.26l48.47-48.47L256,415.261z"/>
<path style="fill:#2D527C;" d="M127.901,511.999c-34.164,0-66.281-13.304-90.438-37.461C13.305,450.383,0,418.264,0.002,384.102
	c0-34.162,13.304-66.281,37.461-90.437l48.47-48.47c2.867-2.866,6.754-4.477,10.808-4.477c4.053,0,7.94,1.611,10.808,4.477
	l159.26,159.26c2.866,2.866,4.477,6.754,4.477,10.808s-1.611,7.942-4.477,10.808l-48.472,48.47
	C194.18,498.696,162.063,511.999,127.901,511.999z M96.74,277.616l-37.663,37.663c-18.383,18.384-28.507,42.826-28.507,68.822
	c-0.002,25.997,10.123,50.439,28.507,68.822c18.383,18.383,42.824,28.507,68.821,28.507s50.439-10.124,68.82-28.507l37.664-37.664
	L96.74,277.616z"/>
<path style="fill:#CEE8FA;" d="M415.26,256.001l48.47-48.47c43.978-43.978,43.978-115.282,0-159.26l0,0
	c-43.98-43.98-115.282-43.978-159.26,0L256,96.742L415.26,256.001z"/>
<g>
	<path style="fill:#2D527C;" d="M415.26,271.285c-3.913,0-7.823-1.492-10.808-4.477l-159.26-159.26
		c-5.969-5.969-5.969-15.647,0-21.615l48.47-48.47C317.821,13.306,349.938,0.002,384.1,0.002c34.164,0,66.28,13.304,90.438,37.461
		c49.866,49.867,49.866,131.008,0,180.875l-48.472,48.472C423.082,269.793,419.17,271.285,415.26,271.285z M277.615,96.741
		L415.26,234.385l37.664-37.664c37.948-37.948,37.948-99.695,0-137.645c-18.383-18.383-42.826-28.507-68.822-28.507
		s-50.439,10.124-68.822,28.507L277.615,96.741z"/>
	<path style="fill:#2D527C;" d="M384.102,512.001c-34.162,0-66.28-13.304-90.437-37.461c-5.969-5.969-5.969-15.647,0-21.615
		c5.973-5.967,15.648-5.969,21.617,0c18.381,18.383,42.824,28.506,68.82,28.506c25.999,0,50.44-10.124,68.822-28.506
		c18.383-18.384,28.507-42.826,28.507-68.823s-10.124-50.439-28.507-68.821L196.719,59.077
		c-18.381-18.383-42.823-28.507-68.82-28.507S77.46,40.694,59.078,59.077s-28.509,42.824-28.509,68.821s10.124,50.439,28.507,68.821
		l207.732,207.733c5.969,5.969,5.969,15.647,0,21.615c-5.97,5.969-15.645,5.969-21.617,0L37.459,218.337
		C13.304,194.18,0,162.062,0,127.898c0-34.162,13.304-66.281,37.461-90.437c24.155-24.155,56.276-37.46,90.437-37.46
		c0.003,0,0,0,0,0c34.164,0,66.281,13.304,90.438,37.461l256.205,256.205c24.157,24.157,37.461,56.274,37.461,90.437
		s-13.304,66.281-37.461,90.437C450.384,498.696,418.265,512.001,384.102,512.001z"/>
</g>
<circle style="fill:#CEE8FA;" cx="215.16" cy="215.16" r="33.41"/>
<path style="fill:#2D527C;" d="M215.16,263.855c-13.007,0-25.236-5.065-34.433-14.263c-18.986-18.985-18.986-49.878,0-68.866
	c9.198-9.198,21.427-14.264,34.433-14.264s25.236,5.065,34.433,14.262c9.198,9.198,14.262,21.426,14.262,34.433
	s-5.065,25.235-14.262,34.433C240.395,258.79,228.165,263.855,215.16,263.855z M215.16,197.035c-4.842,0-9.394,1.885-12.818,5.31
	c-7.068,7.068-7.068,18.566,0,25.634c3.424,3.424,7.975,5.31,12.818,5.31c4.842,0,9.394-1.886,12.818-5.31s5.31-7.975,5.31-12.818
	c0-4.841-1.885-9.394-5.31-12.816C224.554,198.919,220.002,197.035,215.16,197.035z"/>
<circle style="fill:#CEE8FA;" cx="296.84" cy="296.84" r="33.41"/>
<path style="fill:#2D527C;" d="M296.842,345.537c-13.007,0-25.235-5.065-34.433-14.262c-18.986-18.986-18.986-49.879,0-68.867
	c9.198-9.197,21.427-14.262,34.433-14.262c13.006,0,25.236,5.065,34.433,14.262c18.985,18.988,18.985,49.881,0,68.866
	C322.076,340.472,309.849,345.537,296.842,345.537z M296.842,278.717c-4.842,0-9.394,1.885-12.818,5.31
	c-7.068,7.068-7.068,18.566,0,25.634c3.424,3.424,7.975,5.31,12.818,5.31c4.842,0,9.394-1.885,12.818-5.31
	c7.068-7.068,7.068-18.568,0-25.635C306.236,280.601,301.684,278.717,296.842,278.717z"/>
<g>
</g>
<g>
</g>
<g>
</g>
<g>
</g>
<g>
</g>
<g>
</g>
<g>
</g>
<g>
</g>
<g>
</g>
<g>
</g>
<g>
</g>
<g>
</g>
<g>
</g>
<g>
</g>
<g>
</g>
</svg>
