<?xml version="1.0" encoding="iso-8859-1"?>
<!-- Generator: Adobe Illustrator 19.0.0, SVG Export Plug-In . SVG Version: 6.00 Build 0)  -->
<svg version="1.1" id="Layer_1" xmlns="http://www.w3.org/2000/svg" xmlns:xlink="http://www.w3.org/1999/xlink" x="0px" y="0px"
	 viewBox="0 0 512 512" style="enable-background:new 0 0 512 512;" xml:space="preserve">
<path style="fill:#CEE8FA;" d="M231.072,283.238c-17.214,22.023-37.02,53.531-37.02,81.926c0,38.49,27.735,64.433,61.949,64.433
	s61.949-25.942,61.949-64.433c0-43.084-47.233-94.929-59.212-107.385c-1.499-1.557-3.984-1.566-5.492-0.018
	c-2.53,2.597-6.618,6.919-11.497,12.535L231.072,283.238z"/>
<g>
	<path style="fill:#2D527C;" d="M255.999,443.307c-43.132,0-75.659-33.594-75.659-78.143c0-26.068,13.434-56.472,39.929-90.369
		c0.074-0.095,0.149-0.189,0.226-0.281l10.676-12.942c0.075-0.09,0.151-0.18,0.228-0.269c5.067-5.831,9.335-10.346,12.024-13.107
		c3.281-3.369,7.859-5.302,12.56-5.302c4.741,0,9.348,1.962,12.637,5.381c14.788,15.377,63.039,69.251,63.039,116.889
		C331.658,409.713,299.131,443.307,255.999,443.307z M241.764,291.822c-21.929,28.089-34.002,54.13-34.002,73.342
		c0,29.392,20.287,50.723,48.239,50.723s48.239-21.333,48.239-50.723c0-27.02-24.623-63.805-48.287-90.23
		c-1.175,1.302-2.428,2.713-3.741,4.223L241.764,291.822z"/>
	<path style="fill:#2D527C;" d="M336.361,512H175.639c-33.616,0-60.963-27.347-60.963-60.963V243.921
		c0-33.616,27.349-60.963,60.963-60.963h160.722c33.616,0,60.963,27.348,60.963,60.963v28.148c0,7.571-6.139,13.71-13.71,13.71
		s-13.71-6.139-13.71-13.71v-28.148c0-18.495-15.048-33.543-33.543-33.543H175.639c-18.496,0-33.543,15.048-33.543,33.543v207.115
		c0,18.495,15.048,33.543,33.543,33.543h160.722c18.495,0,33.543-15.048,33.543-33.543v-117.21c0-7.571,6.139-13.71,13.71-13.71
		s13.71,6.139,13.71,13.71v117.21C397.323,484.653,369.975,512,336.361,512z"/>
</g>
<path style="fill:#CEE8FA;" d="M325.822,96.002h-27.596l-12.595-57.903c-2.871-13.196-13.918-23.322-27.387-24.307
	c-15.132-1.106-28.565,9.087-31.74,23.688l-12.73,58.523h-27.596c-13.847,0-25.639,10.767-26.133,24.605
	c-0.517,14.529,11.107,26.469,25.52,26.469h10.453v48.764l0,0h119.963v-48.764h10.453c14.413,0,26.037-11.94,25.52-26.469
	C351.461,106.769,339.668,96.002,325.822,96.002z"/>
<path style="fill:#2D527C;" d="M315.981,209.549H196.018c-7.572,0-13.71-6.139-13.71-13.71v-35.184
	c-9.505-0.772-18.28-4.916-24.984-11.863c-7.462-7.734-11.363-17.915-10.979-28.672c0.754-21.212,18.251-37.827,39.833-37.827
	h16.547l10.381-47.726C217.463,14.537,235.501,0,255.999,0c1.076,0,2.169,0.038,3.245,0.118
	c19.241,1.408,35.601,15.828,39.784,35.069l10.248,47.104h16.547c21.581,0,39.078,16.615,39.835,37.827
	c0.381,10.757-3.517,20.938-10.98,28.672c-6.706,6.947-15.48,11.091-24.985,11.863v35.184
	C329.691,203.41,323.553,209.549,315.981,209.549z M209.728,182.129h92.543v-35.053c0-7.571,6.139-13.71,13.71-13.71h10.453
	c3.238,0,6.261-1.285,8.511-3.617c2.25-2.329,3.423-5.403,3.307-8.655c-0.222-6.275-5.798-11.382-12.43-11.382h-27.596
	c-6.449,0-12.025-4.494-13.396-10.795l-12.597-57.902c-1.621-7.451-7.785-13.022-14.991-13.548
	c-8.218-0.613-15.621,5.007-17.343,12.927l-12.73,58.523c-1.371,6.303-6.948,10.797-13.396,10.797h-27.596
	c-6.632,0-12.207,5.106-12.431,11.382c-0.115,3.252,1.058,6.326,3.307,8.655c2.251,2.332,5.273,3.617,8.511,3.617h10.453
	c7.572,0,13.71,6.139,13.71,13.71v35.051H209.728z"/>
<g>
</g>
<g>
</g>
<g>
</g>
<g>
</g>
<g>
</g>
<g>
</g>
<g>
</g>
<g>
</g>
<g>
</g>
<g>
</g>
<g>
</g>
<g>
</g>
<g>
</g>
<g>
</g>
<g>
</g>
</svg>
