<?xml version="1.0" encoding="iso-8859-1"?>
<!-- Generator: Adobe Illustrator 19.0.0, SVG Export Plug-In . SVG Version: 6.00 Build 0)  -->
<svg version="1.1" id="Layer_1" xmlns="http://www.w3.org/2000/svg" xmlns:xlink="http://www.w3.org/1999/xlink" x="0px" y="0px"
	 viewBox="0 0 512.001 512.001" style="enable-background:new 0 0 512.001 512.001;" xml:space="preserve">
<g>
	<path style="fill:#2D527C;" d="M255.999,354.943c-7.838,0-14.191-6.353-14.191-14.191v-55.975c0-7.838,6.353-14.191,14.191-14.191
		c7.838,0,14.191,6.353,14.191,14.191v55.975C270.19,348.59,263.837,354.943,255.999,354.943z"/>
	<path style="fill:#2D527C;" d="M283.988,326.954h-55.975c-7.838,0-14.191-6.353-14.191-14.191s6.353-14.191,14.191-14.191h55.975
		c7.838,0,14.191,6.353,14.191,14.191C298.179,320.602,291.826,326.954,283.988,326.954z"/>
	<path style="fill:#2D527C;" d="M255.999,405.714c-51.254,0-92.951-41.697-92.951-92.951s41.697-92.951,92.951-92.951
		c15.654,0,31.138,3.969,44.778,11.48c6.866,3.78,9.367,12.41,5.587,19.276c-3.78,6.867-12.411,9.365-19.276,5.587
		c-9.458-5.207-20.208-7.96-31.088-7.96c-35.604,0-64.569,28.965-64.569,64.569s28.965,64.569,64.569,64.569
		s64.569-28.965,64.569-64.569c0-7.838,6.353-14.191,14.191-14.191s14.191,6.353,14.191,14.191
		C348.95,364.017,307.253,405.714,255.999,405.714z"/>
</g>
<path style="fill:#CEE8FA;" d="M497.809,159.173v-43.575c0-17.749-14.388-32.135-32.135-32.135H177.992L160.829,49.69
	c-5.481-10.785-16.552-17.578-28.649-17.578H46.326c-17.747,0-32.135,14.388-32.135,32.135v16.876v78.05L497.809,159.173
	L497.809,159.173L497.809,159.173z"/>
<g>
	<path style="fill:#2D527C;" d="M497.809,173.364H14.191C6.353,173.364,0,167.011,0,159.173V64.245
		c0-25.544,20.783-46.326,46.326-46.326h85.854c17.532,0,33.357,9.709,41.301,25.339l13.217,26.012h278.974
		c25.544,0,46.326,20.783,46.326,46.328v43.573C512,167.011,505.647,173.364,497.809,173.364z M28.382,144.982h455.236v-29.384
		c0-9.895-8.049-17.946-17.944-17.946H177.992c-5.341,0-10.232-3-12.651-7.762l-17.163-33.774
		c-3.077-6.055-9.207-9.816-15.997-9.816H46.326c-9.895,0.001-17.944,8.052-17.944,17.946V144.982z"/>
	<path style="fill:#2D527C;" d="M452.169,494.081H59.831C26.841,494.081,0,467.24,0,434.249V159.176
		c0-7.838,6.353-14.191,14.191-14.191h483.618c7.838,0,14.191,6.353,14.191,14.191v154.68c0,7.838-6.353,14.191-14.191,14.191
		s-14.191-6.353-14.191-14.191V173.367H28.382v260.884c0,17.341,14.107,31.449,31.449,31.449H452.17
		c17.341,0,31.449-14.107,31.449-31.449v-37.234c0-7.838,6.353-14.191,14.191-14.191s14.191,6.353,14.191,14.191v37.234
		C512,467.24,485.159,494.081,452.169,494.081z"/>
</g>
<g>
</g>
<g>
</g>
<g>
</g>
<g>
</g>
<g>
</g>
<g>
</g>
<g>
</g>
<g>
</g>
<g>
</g>
<g>
</g>
<g>
</g>
<g>
</g>
<g>
</g>
<g>
</g>
<g>
</g>
</svg>
