<?xml version="1.0" encoding="iso-8859-1"?>
<!-- Generator: Adobe Illustrator 19.0.0, SVG Export Plug-In . SVG Version: 6.00 Build 0)  -->
<svg version="1.1" id="Layer_1" xmlns="http://www.w3.org/2000/svg" xmlns:xlink="http://www.w3.org/1999/xlink" x="0px" y="0px"
	 viewBox="0 0 512 512" style="enable-background:new 0 0 512 512;" xml:space="preserve">
<g>
	<path style="fill:#2D527C;" d="M228.705,306.851c-7.931,0-14.359-6.43-14.359-14.359v-80.427c0-7.929,6.429-14.359,14.359-14.359
		c7.931,0,14.359,6.43,14.359,14.359v80.427C243.064,300.422,236.636,306.851,228.705,306.851z"/>
	<path style="fill:#2D527C;" d="M268.918,266.638h-80.426c-7.931,0-14.359-6.43-14.359-14.359c0-7.929,6.429-14.359,14.359-14.359
		h80.426c7.931,0,14.359,6.43,14.359,14.359C283.277,260.208,276.849,266.638,268.918,266.638z"/>
	<path style="fill:#2D527C;" d="M466.714,414.725h-66.198c-7.931,0-14.359-6.43-14.359-14.359s6.429-14.359,14.359-14.359h66.198
		c9.135,0,16.569-7.432,16.569-16.568v-90.776c0-4.397-1.729-8.538-4.868-11.667c-3.166-3.166-7.315-4.901-11.701-4.901
		c-9.125,0-16.55,7.432-16.55,16.568v50.026c0,4.044-1.706,7.9-4.697,10.62c-2.991,2.723-6.993,4.058-11.016,3.675l-81.411-7.711
		c-6.7-0.633-12.059-5.836-12.895-12.513l-17.94-143.473c-2.633-21.038-20.605-36.903-41.803-36.903H90.765
		c-21.197,0-39.168,15.867-41.804,36.906L29.046,338.659c-1.501,11.977,2.223,24.037,10.214,33.092
		c7.995,9.061,19.508,14.256,31.589,14.256h265.05c7.931,0,14.359,6.43,14.359,14.359s-6.429,14.359-14.359,14.359H70.848
		c-20.314,0-39.676-8.738-53.121-23.97c-13.44-15.228-19.702-35.516-17.178-55.662l19.915-159.367
		c4.431-35.383,34.653-62.061,70.3-62.061h189.637c35.647,0,65.869,26.678,70.298,62.056l16.513,132.048l54.233,5.136v-34.242
		c0-24.972,20.308-45.286,45.269-45.286c12.057,0,23.42,4.721,31.992,13.297c8.567,8.538,13.294,19.906,13.294,31.99v90.776
		C512.001,394.411,491.686,414.725,466.714,414.725z"/>
</g>
<path style="fill:#CEE8FA;" d="M107.851,128.024l19.269,144.52c1.814,13.604-8.769,25.693-22.495,25.693H19.632l15.082-120.732
	c3.541-28.272,27.557-49.48,56.051-49.48L107.851,128.024L107.851,128.024z"/>
<g>
	<path style="fill:#2D527C;" d="M104.623,312.596H19.632c-4.118,0-8.038-1.768-10.765-4.856c-2.725-3.086-3.995-7.197-3.484-11.282
		l15.08-120.732c4.431-35.383,34.653-62.061,70.3-62.061h17.086c7.197,0,13.282,5.327,14.233,12.462l19.267,144.52
		c1.412,10.587-1.814,21.269-8.85,29.303C125.465,307.987,115.304,312.596,104.623,312.596z M35.896,283.878h68.726
		c3.29,0,5.34-1.782,6.271-2.843c0.929-1.063,2.425-3.331,1.99-6.592l-17.605-132.06h-4.515c-21.197,0-39.169,15.867-41.804,36.906
		L35.896,283.878z"/>
	<path style="fill:#2D527C;" d="M188.28,142.383c-7.931,0-14.359-6.43-14.359-14.359V61.376c0-7.929,6.429-14.359,14.359-14.359
		s14.359,6.43,14.359,14.359v66.648C202.639,135.955,196.21,142.383,188.28,142.383z"/>
	<path style="fill:#2D527C;" d="M340.62,74.299H35.938c-7.931,0-14.359-6.43-14.359-14.359s6.429-14.359,14.359-14.359h304.681
		c7.931,0,14.359,6.43,14.359,14.359S348.55,74.299,340.62,74.299z"/>
	<path style="fill:#2D527C;" d="M261.233,466.418h-155.08c-7.931,0-14.359-6.43-14.359-14.359s6.429-14.359,14.359-14.359h155.08
		c7.931,0,14.359,6.43,14.359,14.359S269.164,466.418,261.233,466.418z"/>
</g>
<g>
</g>
<g>
</g>
<g>
</g>
<g>
</g>
<g>
</g>
<g>
</g>
<g>
</g>
<g>
</g>
<g>
</g>
<g>
</g>
<g>
</g>
<g>
</g>
<g>
</g>
<g>
</g>
<g>
</g>
</svg>
