<?xml version="1.0" encoding="iso-8859-1"?>
<!-- Generator: Adobe Illustrator 19.0.0, SVG Export Plug-In . SVG Version: 6.00 Build 0)  -->
<svg version="1.1" id="Layer_1" xmlns="http://www.w3.org/2000/svg" xmlns:xlink="http://www.w3.org/1999/xlink" x="0px" y="0px"
	 viewBox="0 0 512 512" style="enable-background:new 0 0 512 512;" xml:space="preserve">
<path style="fill:#CEE8FA;" d="M280.77,75.655L280.77,75.655c-20.762,0-37.591,16.831-37.591,37.591v29.517h-29.517
	c-20.762,0-37.591,16.831-37.591,37.591l0,0c0,20.762,16.831,37.591,37.591,37.591h29.517v29.517
	c0,20.762,16.831,37.591,37.591,37.591l0,0c20.762,0,37.591-16.831,37.591-37.591v-29.517h29.517
	c20.762,0,37.591-16.831,37.591-37.591l0,0c0-20.762-16.831-37.591-37.591-37.591H318.36v-29.516
	C318.362,92.486,301.531,75.655,280.77,75.655z"/>
<g>
	<path style="fill:#2D527C;" d="M280.77,300.244c-29.104,0-52.781-23.678-52.781-52.782v-14.327h-14.327
		c-29.104,0-52.781-23.678-52.781-52.781s23.677-52.781,52.781-52.781h14.327v-14.327c0-29.103,23.677-52.781,52.781-52.781
		s52.782,23.678,52.782,52.781v14.327h14.327c29.102,0,52.781,23.678,52.781,52.781s-23.678,52.781-52.781,52.781h-14.327v14.327
		C333.552,276.566,309.874,300.244,280.77,300.244z M213.662,157.953c-12.351,0-22.401,10.048-22.401,22.401
		s10.05,22.401,22.401,22.401h29.517c8.389,0,15.19,6.802,15.19,15.19v29.517c0,12.353,10.048,22.402,22.401,22.402
		s22.402-10.05,22.402-22.402v-29.517c0-8.388,6.802-15.19,15.19-15.19h29.517c12.353,0,22.401-10.048,22.401-22.401
		s-10.048-22.401-22.401-22.401h-29.517c-8.388,0-15.19-6.802-15.19-15.19v-29.516c0-12.353-10.05-22.401-22.402-22.401
		s-22.401,10.048-22.401,22.401v29.517c0,8.388-6.801,15.19-15.19,15.19h-29.517L213.662,157.953L213.662,157.953z"/>
	<path style="fill:#2D527C;" d="M444.542,360.711h-17.956c-8.388,0-15.19-6.802-15.19-15.19s6.802-15.19,15.19-15.19h17.956
		c13.764,0,24.96-11.197,24.96-24.96V55.339c0-13.762-11.197-24.959-24.96-24.959H116.997c-13.762,0-24.959,11.197-24.959,24.959
		v250.033c0,13.764,11.197,24.96,24.959,24.96h233.646c8.388,0,15.19,6.802,15.19,15.19s-6.802,15.19-15.19,15.19H116.997
		c-30.514,0-55.339-24.825-55.339-55.34V55.339C61.658,24.825,86.483,0,116.997,0h327.545c30.515,0,55.34,24.825,55.34,55.339
		v250.033C499.882,335.886,475.057,360.711,444.542,360.711z"/>
	<path style="fill:#2D527C;" d="M75.41,452.25c-8.389,0-15.19-6.802-15.19-15.19V55.339c0-8.388,6.801-15.19,15.19-15.19
		s15.19,6.802,15.19,15.19v381.723C90.6,445.45,83.798,452.25,75.41,452.25z"/>
	<path style="fill:#2D527C;" d="M113.131,512H37.687c-14.099,0-25.569-11.471-25.569-25.569c0-33.363,27.143-60.506,60.506-60.506
		h5.57c33.363,0,60.506,27.143,60.506,60.506C138.701,500.53,127.231,512,113.131,512z M42.881,481.62h65.057
		c-2.31-14.333-14.769-25.316-29.744-25.316h-5.57C57.65,456.304,45.191,467.288,42.881,481.62z"/>
</g>
<g>
</g>
<g>
</g>
<g>
</g>
<g>
</g>
<g>
</g>
<g>
</g>
<g>
</g>
<g>
</g>
<g>
</g>
<g>
</g>
<g>
</g>
<g>
</g>
<g>
</g>
<g>
</g>
<g>
</g>
</svg>
