<?xml version="1.0" encoding="iso-8859-1"?>
<!-- Generator: Adobe Illustrator 19.0.0, SVG Export Plug-In . SVG Version: 6.00 Build 0)  -->
<svg version="1.1" id="Layer_1" xmlns="http://www.w3.org/2000/svg" xmlns:xlink="http://www.w3.org/1999/xlink" x="0px" y="0px"
	 viewBox="0 0 512 512" style="enable-background:new 0 0 512 512;" xml:space="preserve">
<path style="fill:#CEE8FA;" d="M286.807,132.845V67.85h28.588c14.699,0,26.616-11.916,26.616-26.616s-11.917-26.616-26.617-26.616
	H196.607c-14.699,0-26.616,11.916-26.616,26.616s11.916,26.616,26.616,26.616h28.588v64.995"/>
<g>
	<path style="fill:#2D527C;" d="M286.807,147.464c-8.073,0-14.619-6.546-14.619-14.619V67.85c0-8.073,6.546-14.619,14.619-14.619
		h28.588c6.614,0,11.996-5.383,11.996-11.996s-5.383-11.996-11.998-11.996H196.607c-6.614,0-11.996,5.383-11.996,11.996
		s5.383,11.996,11.996,11.996h28.588c8.073,0,14.619,6.546,14.619,14.619v64.995c0,8.073-6.546,14.619-14.619,14.619
		s-14.619-6.546-14.619-14.619V82.469h-13.969c-22.737,0-41.235-18.498-41.235-41.235S173.871,0,196.607,0h118.786
		c22.737,0,41.235,18.498,41.235,41.235S338.13,82.47,315.393,82.47h-13.969v50.376
		C301.426,140.919,294.879,147.464,286.807,147.464z"/>
	<path style="fill:#2D527C;" d="M368.938,158.186H143.062c-8.073,0-14.619-6.546-14.619-14.619s6.546-14.619,14.619-14.619h225.877
		c8.073,0,14.619,6.546,14.619,14.619C383.557,151.639,377.012,158.186,368.938,158.186z"/>
	<path style="fill:#2D527C;" d="M256,512c-8.073,0-14.619-6.546-14.619-14.619v-40.113c0-8.073,6.546-14.619,14.619-14.619
		s14.619,6.546,14.619,14.619v40.113C270.618,505.454,264.074,512,256,512z"/>
	<path style="fill:#2D527C;" d="M333.467,200.505c-8.073,0-14.619-6.546-14.619-14.619v-35.042c0-8.073,6.546-14.619,14.619-14.619
		s14.619,6.546,14.619,14.619v35.042C348.087,193.96,341.542,200.505,333.467,200.505z"/>
	<path style="fill:#2D527C;" d="M258.526,470.83c-49.383,0-89.561-40.176-89.561-89.562V150.846c0-8.073,6.546-14.619,14.619-14.619
		s14.619,6.546,14.619,14.619v230.423c0,33.263,27.061,60.324,60.323,60.324c33.263,0,60.324-27.061,60.324-60.324V246.816
		c0-8.073,6.546-14.619,14.619-14.619s14.619,6.546,14.619,14.619v134.453C348.087,430.654,307.911,470.83,258.526,470.83z"/>
	<path style="fill:#2D527C;" d="M247.031,254.572h-61.807c-8.073,0-14.619-6.546-14.619-14.619s6.546-14.619,14.619-14.619h61.807
		c8.073,0,14.619,6.546,14.619,14.619S255.104,254.572,247.031,254.572z"/>
	<path style="fill:#2D527C;" d="M243.262,311.141H185.84c-8.073,0-14.619-6.546-14.619-14.619s6.546-14.619,14.619-14.619h57.421
		c8.073,0,14.619,6.546,14.619,14.619S251.337,311.141,243.262,311.141z"/>
	<path style="fill:#2D527C;" d="M243.262,367.711H185.84c-8.073,0-14.619-6.546-14.619-14.619s6.546-14.619,14.619-14.619h57.421
		c8.073,0,14.619,6.546,14.619,14.619S251.337,367.711,243.262,367.711z"/>
</g>
<g>
</g>
<g>
</g>
<g>
</g>
<g>
</g>
<g>
</g>
<g>
</g>
<g>
</g>
<g>
</g>
<g>
</g>
<g>
</g>
<g>
</g>
<g>
</g>
<g>
</g>
<g>
</g>
<g>
</g>
</svg>
