<?xml version="1.0" encoding="iso-8859-1"?>
<!-- Generator: Adobe Illustrator 19.0.0, SVG Export Plug-In . SVG Version: 6.00 Build 0)  -->
<svg version="1.1" id="Layer_1" xmlns="http://www.w3.org/2000/svg" xmlns:xlink="http://www.w3.org/1999/xlink" x="0px" y="0px"
	 viewBox="0 0 512 512" style="enable-background:new 0 0 512 512;" xml:space="preserve">
<g>
	<path style="fill:#2D527C;" d="M427.181,464.772H84.819c-7.948,0-14.391-6.444-14.391-14.391s6.443-14.391,14.391-14.391h342.362
		c7.948,0,14.391,6.444,14.391,14.391S435.129,464.772,427.181,464.772z"/>
	<path style="fill:#2D527C;" d="M497.609,235.28H14.391C6.443,235.28,0,228.836,0,220.889s6.443-14.391,14.391-14.391h483.218
		c7.948,0,14.391,6.444,14.391,14.391S505.557,235.28,497.609,235.28z"/>
	<path style="fill:#2D527C;" d="M354.578,463.333H157.423c-2.559,0-5.07-0.682-7.279-1.976
		C82.994,421.992,41.28,347.954,41.28,268.139c0-18.089,2.149-36.643,5.894-50.906c1.661-6.326,7.378-10.736,13.919-10.736H450.91
		c7.948,0,14.391,6.444,14.391,14.391s-6.443,14.391-14.391,14.391H72.734c-1.707,10.039-2.674,21.66-2.674,32.86
		c0,68.326,34.903,131.721,91.348,166.413H350.59c52.063-31.985,85.893-88.096,90.748-150.88
		c0.613-7.924,7.531-13.867,15.457-13.237c7.925,0.613,13.851,7.532,13.238,15.457c-5.684,73.491-46.125,139.085-108.18,175.465
		C359.648,462.654,357.135,463.333,354.578,463.333z"/>
</g>
<polygon style="fill:#CEE8FA;" points="357.096,220.889 440.048,137.94 407.119,105.009 291.239,220.889 "/>
<path style="fill:#2D527C;" d="M357.096,235.28h-65.858c-5.82,0-11.068-3.507-13.296-8.883c-2.228-5.378-0.996-11.567,3.118-15.683
	L396.94,94.835c2.698-2.698,6.359-4.215,10.176-4.215l0,0c3.816,0,7.477,1.517,10.176,4.215l32.929,32.93
	c5.62,5.62,5.62,14.732,0,20.353l-82.951,82.95C364.574,233.763,360.913,235.28,357.096,235.28z M325.981,206.499h25.154
	l68.56-68.559l-12.578-12.578L325.981,206.499z"/>
<circle style="fill:#CEE8FA;" cx="436.79" cy="108.28" r="46.656"/>
<path style="fill:#2D527C;" d="M436.784,169.32c-33.661,0-61.046-27.386-61.046-61.047s27.386-61.046,61.046-61.046
	s61.046,27.384,61.046,61.046S470.445,169.32,436.784,169.32z M436.784,76.009c-17.791,0-32.264,14.474-32.264,32.264
	c0,17.791,14.474,32.266,32.264,32.266s32.264-14.474,32.264-32.266C469.049,90.482,454.575,76.009,436.784,76.009z"/>
<path style="fill:#CEE8FA;" d="M78.264,363.791c17.878,35.614,45.404,65.364,79.159,85.153h197.155
	c33.755-19.789,61.282-49.539,79.159-85.153L78.264,363.791L78.264,363.791z"/>
<path style="fill:#2D527C;" d="M354.578,463.333H157.423c-2.559,0-5.071-0.682-7.279-1.976
	c-36.16-21.199-65.464-52.705-84.741-91.111c-2.239-4.461-2.008-9.764,0.613-14.012c2.621-4.247,7.256-6.834,12.248-6.834h355.473
	c4.992,0,9.626,2.587,12.248,6.834c2.621,4.248,2.852,9.553,0.613,14.012c-19.278,38.406-48.582,69.91-84.741,91.111
	C359.649,462.654,357.135,463.333,354.578,463.333z M161.41,434.552h189.182c23.143-14.224,42.92-33.427,58.185-56.37H103.223
	C118.488,401.126,138.266,420.329,161.41,434.552z"/>
<g>
</g>
<g>
</g>
<g>
</g>
<g>
</g>
<g>
</g>
<g>
</g>
<g>
</g>
<g>
</g>
<g>
</g>
<g>
</g>
<g>
</g>
<g>
</g>
<g>
</g>
<g>
</g>
<g>
</g>
</svg>
