<?xml version="1.0" encoding="iso-8859-1"?>
<!-- Generator: Adobe Illustrator 19.0.0, SVG Export Plug-In . SVG Version: 6.00 Build 0)  -->
<svg version="1.1" id="Layer_1" xmlns="http://www.w3.org/2000/svg" xmlns:xlink="http://www.w3.org/1999/xlink" x="0px" y="0px"
	 viewBox="0 0 511.999 511.999" style="enable-background:new 0 0 511.999 511.999;" xml:space="preserve">
<path style="fill:#2D527C;" d="M458.476,463.617H53.524C24.01,463.617,0,439.609,0,410.095l0.001-308.188
	c0-29.514,24.01-53.524,53.522-53.524h404.952c29.514,0,53.524,24.01,53.524,53.524v17.367c0,8.113-6.579,14.691-14.691,14.691
	c-8.113,0-14.691-6.579-14.691-14.691v-17.367c0-13.312-10.829-24.141-24.141-24.141H53.524c-13.31,0-24.14,10.829-24.14,24.141
	l-0.001,308.188c0,13.312,10.829,24.141,24.141,24.141h404.952c13.31,0,24.14-10.829,24.14-24.141l0.001-208.453
	c0-8.113,6.579-14.691,14.691-14.691l0,0c8.113,0,14.691,6.579,14.691,14.691l-0.001,208.453
	C511.999,439.609,487.988,463.617,458.476,463.617z"/>
<circle style="fill:#CEE8FA;" cx="146.55" cy="175.49" r="58.678"/>
<path style="fill:#2D527C;" d="M146.549,248.853c-40.456,0-73.368-32.912-73.368-73.368s32.912-73.368,73.368-73.368
	s73.368,32.912,73.368,73.368S187.005,248.853,146.549,248.853z M146.549,131.5c-24.254,0-43.985,19.732-43.985,43.985
	s19.732,43.985,43.985,43.985s43.985-19.732,43.985-43.985S170.803,131.5,146.549,131.5z"/>
<circle style="fill:#CEE8FA;" cx="365.45" cy="175.49" r="58.678"/>
<path style="fill:#2D527C;" d="M365.451,248.853c-40.456,0-73.368-32.912-73.368-73.368s32.912-73.368,73.368-73.368
	s73.368,32.912,73.368,73.368S405.907,248.853,365.451,248.853z M365.451,131.5c-24.254,0-43.985,19.732-43.985,43.985
	s19.732,43.985,43.985,43.985s43.985-19.732,43.985-43.985S389.705,131.5,365.451,131.5z"/>
<circle style="fill:#CEE8FA;" cx="146.55" cy="336.52" r="58.678"/>
<path style="fill:#2D527C;" d="M146.549,409.885c-40.456,0-73.368-32.912-73.368-73.368s32.912-73.368,73.368-73.368
	s73.368,32.912,73.368,73.368S187.005,409.885,146.549,409.885z M146.549,292.531c-24.254,0-43.985,19.732-43.985,43.985
	s19.732,43.985,43.985,43.985s43.985-19.732,43.985-43.985C190.533,312.263,170.803,292.531,146.549,292.531z"/>
<circle style="fill:#CEE8FA;" cx="365.45" cy="336.52" r="58.678"/>
<g>
	<path style="fill:#2D527C;" d="M365.451,409.885c-40.456,0-73.368-32.912-73.368-73.368s32.912-73.368,73.368-73.368
		s73.368,32.912,73.368,73.368S405.907,409.885,365.451,409.885z M365.451,292.531c-24.254,0-43.985,19.732-43.985,43.985
		s19.732,43.985,43.985,43.985s43.985-19.732,43.985-43.985C409.436,312.263,389.705,292.531,365.451,292.531z"/>
	<path style="fill:#2D527C;" d="M188.039,231.667c-3.761,0-7.519-1.435-10.388-4.303l-82.982-82.982
		c-5.737-5.737-5.737-15.04,0-20.778c5.738-5.736,15.038-5.736,20.778,0l82.98,82.98c5.737,5.737,5.737,15.04,0,20.778
		C195.558,230.232,191.8,231.667,188.039,231.667z"/>
	<path style="fill:#2D527C;" d="M406.941,392.699c-3.761,0-7.519-1.435-10.388-4.303l-82.98-82.98
		c-5.737-5.737-5.737-15.04,0-20.778c5.738-5.736,15.038-5.736,20.778,0l82.98,82.98c5.737,5.737,5.737,15.04,0,20.778
		C414.46,391.263,410.702,392.699,406.941,392.699z"/>
</g>
<g>
</g>
<g>
</g>
<g>
</g>
<g>
</g>
<g>
</g>
<g>
</g>
<g>
</g>
<g>
</g>
<g>
</g>
<g>
</g>
<g>
</g>
<g>
</g>
<g>
</g>
<g>
</g>
<g>
</g>
</svg>
