<?xml version="1.0" encoding="iso-8859-1"?>
<!-- Generator: Adobe Illustrator 19.0.0, SVG Export Plug-In . SVG Version: 6.00 Build 0)  -->
<svg version="1.1" id="Layer_1" xmlns="http://www.w3.org/2000/svg" xmlns:xlink="http://www.w3.org/1999/xlink" x="0px" y="0px"
	 viewBox="0 0 511.998 511.998" style="enable-background:new 0 0 511.998 511.998;" xml:space="preserve">
<path style="fill:#CEE8FA;" d="M305.074,102.664l101.143,101.143c8.429,8.429,8.429,22.22,0,30.648l0,0
	c-8.429,8.429-22.22,8.429-30.648,0L274.426,133.313c-8.429-8.429-8.429-22.22,0-30.648l0,0
	C282.853,94.236,296.646,94.236,305.074,102.664z"/>
<g>
	<path style="fill:#2D527C;" d="M390.891,254.374c-9.438,0-18.294-3.659-24.939-10.304L264.809,142.927
		c-6.645-6.645-10.304-15.502-10.304-24.939s3.659-18.294,10.305-24.939c6.643-6.645,15.5-10.304,24.938-10.304
		s18.294,3.659,24.939,10.304L415.83,194.192c13.752,13.752,13.752,36.126,0,49.878
		C409.187,250.715,400.329,254.374,390.891,254.374z M289.75,109.94c-2.174,0-4.201,0.831-5.709,2.339
		c-1.509,1.508-2.34,3.536-2.34,5.709c0,2.174,0.831,4.201,2.34,5.711l101.143,101.143c1.508,1.508,3.536,2.339,5.709,2.339
		c2.174,0,4.203-0.831,5.711-2.339c3.095-3.095,3.095-8.325,0-11.42L295.46,112.279C293.951,110.771,291.922,109.94,289.75,109.94z"
		/>
	<path style="fill:#2D527C;" d="M379.968,332.072c-6.026,0-11.531-4.035-13.14-10.136c-1.913-7.261,2.422-14.699,9.684-16.612
		c24.054-6.339,46.125-19.045,63.827-36.746c26.716-26.715,41.429-62.236,41.429-100.019s-14.713-73.303-41.429-100.017
		c-55.152-55.151-144.886-55.151-200.037,0c-18.867,18.867-31.962,42.52-37.867,68.401c-1.671,7.32-8.96,11.9-16.281,10.232
		c-7.32-1.671-11.901-8.959-10.232-16.281c7.046-30.878,22.659-59.089,45.151-81.58c65.754-65.752,172.741-65.752,238.494,0
		c31.852,31.852,49.394,74.201,49.394,119.247s-17.541,87.395-49.393,119.247c-21.101,21.101-47.424,36.25-76.128,43.814
		C382.279,331.926,381.114,332.072,379.968,332.072z"/>
</g>
<path style="fill:#CEE8FA;" d="M250.439,209.78c-12.198-7.208-25.467-12.792-39.512-16.455c-9.518-2.483-19.392-4.084-29.529-4.711
	c-3.214-0.199-6.454-0.299-9.718-0.299c-85.628,0-155.043,69.415-155.043,155.043S86.052,498.401,171.68,498.401
	s155.043-69.415,155.043-155.043C326.723,286.482,296.098,236.759,250.439,209.78z M264.87,343.358
	c0,11.92-9.753,21.672-21.672,21.672H100.161c-11.92,0-21.672-9.753-21.672-21.672l0,0c0-11.919,9.753-21.672,21.672-21.672h143.038
	C255.117,321.685,264.87,331.438,264.87,343.358L264.87,343.358z"/>
<path style="fill:#2D527C;" d="M171.679,511.998c-92.99,0-168.642-75.652-168.642-168.64s75.652-168.641,168.642-168.641
	c3.515,0,7.068,0.11,10.559,0.326c10.846,0.67,21.653,2.394,32.119,5.125c15.083,3.935,29.55,9.96,42.998,17.906
	c24.8,14.655,45.58,35.551,60.092,60.433c14.962,25.654,22.871,54.995,22.871,84.85C340.32,436.346,264.668,511.998,171.679,511.998
	z M171.679,201.911c-77.995,0-141.448,63.453-141.448,141.448c0,77.993,63.453,141.446,141.448,141.446
	c77.993,0,141.446-63.453,141.446-141.446c0-49.805-26.671-96.504-69.604-121.873c-11.272-6.66-23.393-11.708-36.029-15.005
	c-8.773-2.288-17.835-3.734-26.936-4.297C177.622,202.003,174.636,201.911,171.679,201.911z M243.197,378.627H100.16
	c-19.447,0-35.268-15.821-35.268-35.268s15.821-35.268,35.268-35.268h143.037c19.447,0,35.268,15.821,35.268,35.268
	C278.466,362.804,262.645,378.627,243.197,378.627z M100.16,335.282c-4.377,0-8.075,3.698-8.075,8.075
	c0,4.378,3.698,8.075,8.075,8.075h143.037c4.377,0,8.075-3.698,8.075-8.075c0-4.378-3.698-8.075-8.075-8.075H100.16L100.16,335.282z
	"/>
<g>
</g>
<g>
</g>
<g>
</g>
<g>
</g>
<g>
</g>
<g>
</g>
<g>
</g>
<g>
</g>
<g>
</g>
<g>
</g>
<g>
</g>
<g>
</g>
<g>
</g>
<g>
</g>
<g>
</g>
</svg>
