<?xml version="1.0" encoding="iso-8859-1"?>
<!-- Generator: Adobe Illustrator 19.0.0, SVG Export Plug-In . SVG Version: 6.00 Build 0)  -->
<svg version="1.1" id="Layer_1" xmlns="http://www.w3.org/2000/svg" xmlns:xlink="http://www.w3.org/1999/xlink" x="0px" y="0px"
	 viewBox="0 0 512.001 512.001" style="enable-background:new 0 0 512.001 512.001;" xml:space="preserve">
<path style="fill:#2D527C;" d="M455.592,510.71H56.407C25.304,510.71,0,485.406,0,454.302V129.508C0,98.404,25.304,73.1,56.407,73.1
	h399.187c31.103,0,56.407,25.304,56.407,56.408v18.303c0,8.55-6.933,15.483-15.483,15.483s-15.483-6.933-15.483-15.483v-18.303
	c0-14.029-11.413-25.442-25.44-25.442H56.407c-14.028,0-25.44,11.413-25.44,25.442v324.795c0,14.029,11.413,25.442,25.44,25.442
	h399.185c14.029,0,25.442-11.413,25.442-25.442V233.068c0-8.55,6.933-15.483,15.483-15.483S512,224.518,512,233.068v221.234
	C512,485.406,486.696,510.71,455.592,510.71z"/>
<circle style="fill:#CEE8FA;" cx="256" cy="164.661" r="147.9"/>
<g>
	<path style="fill:#2D527C;" d="M256,328.048c-90.087,0-163.378-73.291-163.378-163.378S165.913,1.292,256,1.292
		S419.378,74.583,419.378,164.67S346.086,328.048,256,328.048z M256,32.259c-73.011,0-132.412,59.4-132.412,132.412
		S182.988,297.083,256,297.083s132.412-59.4,132.412-132.412S329.011,32.259,256,32.259z"/>
	<circle style="fill:#2D527C;" cx="256" cy="164.661" r="17.826"/>
	<path style="fill:#2D527C;" d="M256,197.979c-18.366,0-33.309-14.941-33.309-33.309s14.941-33.309,33.309-33.309
		s33.309,14.941,33.309,33.309S274.366,197.979,256,197.979z M256,162.329c-1.291,0-2.343,1.051-2.343,2.343
		c0,1.291,1.051,2.343,2.343,2.343c1.292,0,2.343-1.051,2.343-2.343S257.291,162.329,256,162.329z"/>
	<path style="fill:#2D527C;" d="M256,252.086c-8.55,0-15.483-6.933-15.483-15.483v-71.932c0-8.55,6.933-15.483,15.483-15.483
		c8.55,0,15.483,6.933,15.483,15.483v71.932C271.483,245.153,264.55,252.086,256,252.086z"/>
</g>
<g>
</g>
<g>
</g>
<g>
</g>
<g>
</g>
<g>
</g>
<g>
</g>
<g>
</g>
<g>
</g>
<g>
</g>
<g>
</g>
<g>
</g>
<g>
</g>
<g>
</g>
<g>
</g>
<g>
</g>
</svg>
