<?xml version="1.0" encoding="iso-8859-1"?>
<!-- Generator: Adobe Illustrator 19.0.0, SVG Export Plug-In . SVG Version: 6.00 Build 0)  -->
<svg version="1.1" id="Layer_1" xmlns="http://www.w3.org/2000/svg" xmlns:xlink="http://www.w3.org/1999/xlink" x="0px" y="0px"
	 viewBox="0 0 512 512" style="enable-background:new 0 0 512 512;" xml:space="preserve">
<path style="fill:#2D527C;" d="M110.577,512c-29.54,0.002-57.305-11.5-78.19-32.385C11.498,458.724-0.005,430.951,0,401.409
	c0.003-29.538,11.511-57.31,32.4-78.198l189.629-189.636c6.495-6.495,17.027-6.497,23.522,0c6.495,6.497,6.497,17.027,0,23.522
	L55.924,346.733c-14.608,14.608-22.655,34.027-22.659,54.682c-0.003,20.653,8.039,40.071,22.644,54.677
	c14.602,14.602,34.015,22.644,54.668,22.644c0.003,0,0.007,0,0.01,0c20.654-0.002,40.073-8.049,54.68-22.655l203.437-203.432
	c8.689-8.689,14.865-19.55,17.89-31.451l13.022-90.016c0.514-3.551,2.162-6.843,4.7-9.379l71.492-71.494
	c1.886-1.886,2.924-4.393,2.924-7.059c0-2.666-1.038-5.173-2.922-7.057c-1.886-1.886-4.393-2.924-7.059-2.924
	s-5.173,1.038-7.057,2.922l-71.492,71.494c-2.538,2.538-5.828,4.186-9.381,4.7L301.62,123.84c-9.103,1.317-17.529-4.99-18.843-14.08
	c-1.316-9.091,4.99-17.528,14.08-18.843l73.731-10.665l67.583-67.585C446.339,4.499,457.2,0,468.752,0
	c11.551,0,22.413,4.499,30.581,12.666c8.168,8.168,12.666,19.028,12.666,30.581c0,11.551-4.499,22.413-12.666,30.581l-67.585,67.585
	L419.4,226.778c-0.075,0.519-0.175,1.033-0.298,1.542c-4.398,18.118-13.69,34.664-26.875,47.849L188.789,479.601
	c-20.886,20.889-48.657,32.395-78.197,32.399C110.589,512,110.581,512,110.577,512z"/>
<path style="fill:#CEE8FA;" d="M184.365,460.504l182.297-182.297l-132.87-132.87L51.495,327.634L184.365,460.504z M210.646,251.172
	c8.444-8.444,22.135-8.444,30.579,0l19.602,19.602c8.444,8.444,8.444,22.135,0,30.579l-53.316,53.316
	c-8.444,8.444-22.135,8.444-30.579,0l-19.602-19.602c-8.444-8.444-8.444-22.135,0-30.579L210.646,251.172z"/>
<path style="fill:#2D527C;" d="M184.365,477.136c-4.411,0-8.642-1.753-11.761-4.872l-132.87-132.87
	c-6.495-6.495-6.495-17.027,0-23.522l182.297-182.297c3.119-3.119,7.35-4.872,11.761-4.872s8.642,1.753,11.761,4.872l132.87,132.87
	c6.495,6.495,6.495,17.027,0,23.524L196.127,472.265C193.007,475.383,188.777,477.136,184.365,477.136z M75.018,327.634
	l109.348,109.348L343.14,278.208L233.792,168.86L75.018,327.634z M192.22,377.635c-10.217,0-19.824-3.979-27.051-11.204
	l-19.6-19.603c-14.915-14.914-14.915-39.185,0-54.101l53.318-53.318c7.225-7.225,16.832-11.204,27.05-11.204
	c10.217,0,19.824,3.98,27.051,11.204l19.602,19.602c14.915,14.916,14.915,39.187,0,54.101l-53.318,53.316
	C212.047,373.654,202.44,377.635,192.22,377.635z M225.936,261.472c-0.943,0-2.32,0.253-3.529,1.462l-53.318,53.316
	c-1.944,1.944-1.944,5.111,0,7.056l19.602,19.602c1.209,1.209,2.586,1.462,3.529,1.462c0.943,0,2.32-0.253,3.528-1.46l53.318-53.318
	c1.944-1.944,1.944-5.111,0-7.057l-19.602-19.602C228.257,261.725,226.88,261.472,225.936,261.472z"/>
<path style="fill:#CEE8FA;" d="M455.133,94.505l32.437-32.439c10.394-10.394,10.394-27.244,0-37.638s-27.244-10.394-37.638,0
	l-32.437,32.439L455.133,94.505z"/>
<path style="fill:#2D527C;" d="M455.133,111.138c-4.411,0-8.642-1.753-11.761-4.872l-37.638-37.64
	c-6.495-6.495-6.495-17.027,0-23.522l32.437-32.437C446.339,4.499,457.2,0,468.752,0c11.551,0,22.413,4.499,30.581,12.667
	C507.501,20.836,512,31.695,512,43.248c0,11.551-4.499,22.413-12.667,30.581l-32.439,32.437
	C463.775,109.385,459.546,111.138,455.133,111.138z M441.017,56.865l14.116,14.116l20.676-20.678
	c1.886-1.886,2.924-4.393,2.924-7.059c0-2.666-1.04-5.173-2.924-7.057c-1.886-1.886-4.393-2.924-7.059-2.924
	s-5.173,1.04-7.057,2.924L441.017,56.865z"/>
<g>
</g>
<g>
</g>
<g>
</g>
<g>
</g>
<g>
</g>
<g>
</g>
<g>
</g>
<g>
</g>
<g>
</g>
<g>
</g>
<g>
</g>
<g>
</g>
<g>
</g>
<g>
</g>
<g>
</g>
</svg>
