<?xml version="1.0" encoding="iso-8859-1"?>
<!-- Generator: Adobe Illustrator 19.0.0, SVG Export Plug-In . SVG Version: 6.00 Build 0)  -->
<svg version="1.1" id="Layer_1" xmlns="http://www.w3.org/2000/svg" xmlns:xlink="http://www.w3.org/1999/xlink" x="0px" y="0px"
	 viewBox="0 0 512 512" style="enable-background:new 0 0 512 512;" xml:space="preserve">
<path style="fill:#2D527C;" d="M154.215,511.614c-18.804,0-37.052-14.257-57.429-44.869c-14.86-22.323-30.382-52.514-44.884-87.311
	C19.402,301.462,0,220.853,0,163.805c0-42.229,14.382-82.299,40.495-112.824c27.911-32.627,66.392-50.594,108.35-50.594
	c33.558,0,67.103,19.379,91.598,33.529c3.907,2.257,10.994,6.35,15.56,8.676c4.592-2.333,11.725-6.445,15.656-8.709
	c24.557-14.142,58.165-33.497,91.496-33.497c41.958,0,80.437,17.968,108.348,50.594c0.011,0.011,0.02,0.023,0.03,0.034
	C497.629,81.535,512,121.59,512,163.804c0,19.656-4.927,50.047-15.509,95.641c-1.903,8.199-10.095,13.298-18.291,11.399
	c-8.199-1.903-13.303-10.092-11.399-18.291c9.906-42.682,14.72-71.712,14.72-88.751c0-34.969-11.782-68.001-33.178-93.011
	c-0.005-0.005-0.008-0.009-0.012-0.014c-22.026-25.738-52.275-39.914-85.176-39.914c-25.181,0-54.707,17.004-76.269,29.42
	c-16.905,9.743-23.457,13.102-28.951,13.807c-1.282,0.163-2.572,0.165-3.854,0.003c-5.495-0.696-12.032-4.052-28.879-13.784
	c-21.514-12.428-50.972-29.445-76.357-29.445c-32.909,0-63.161,14.181-85.188,39.928c-21.395,25.01-33.177,58.042-33.177,93.012
	c0,53.231,18.525,129.457,49.558,203.904c13.763,33.02,28.329,61.427,42.122,82.148c19.319,29.022,29.422,31.278,32.057,31.278
	c4.054,0,6.721-5.95,7.949-9.496c5.619-16.221,10.755-35.152,16.192-55.195c17.613-64.904,35.819-132.003,76.721-132.003h1.847
	c29.114,0,44.418,33.459,49.444,44.454c11.383,24.888,19.792,57.05,27.927,88.154c5.212,19.935,10.119,38.709,15.548,54.608
	c1.187,3.481,3.76,9.316,7.644,9.319c1.836,0,12.074-1.533,31.953-31.781c13.772-20.959,28.385-49.678,42.257-83.053
	c4.589-11.035,8.979-22.282,13.051-33.427c2.889-7.905,11.642-11.977,19.545-9.081c7.906,2.889,11.971,11.64,9.083,19.545
	c-4.224,11.558-8.78,23.219-13.534,34.661c-14.59,35.105-30.129,65.567-44.93,88.093c-20.411,31.054-38.659,45.519-57.435,45.522
	c-7.906-0.006-27.259-2.937-36.479-29.952c-5.79-16.956-10.834-36.257-16.175-56.69c-7.819-29.9-15.89-60.762-26.171-83.244
	c-7.634-16.687-15.755-26.651-21.727-26.651h-1.847c-0.948,0-9.635,0.869-22.483,30.943c-9.606,22.486-17.687,52.271-24.818,78.548
	c-5.582,20.575-10.851,39.995-16.811,57.204C181.587,508.691,162.141,511.614,154.215,511.614z"/>
<path style="fill:#CEE8FA;" d="M255.999,178.548c93.287,0,177.762-14.752,239.033-38.617c-4.244-29.618-16.323-57.082-35.111-79.042
	c-24.969-29.187-59.334-45.26-96.767-45.26c-29.263,0-60.825,18.178-83.887,31.461c-8.397,4.839-19.877,11.454-23.271,11.89
	c-3.379-0.428-14.801-7.025-23.177-11.864c-23.003-13.289-54.506-31.487-83.977-31.487c-37.433,0-71.799,16.073-96.769,45.26
	c-18.786,21.96-30.863,49.424-35.108,79.042C78.237,163.795,162.713,178.548,255.999,178.548z"/>
<path style="fill:#2D527C;" d="M255.999,193.788c-92.054,0-178.908-14.083-244.565-39.655c-6.602-2.571-10.561-9.351-9.555-16.363
	c4.689-32.73,18.042-62.74,38.614-86.787C68.408,18.355,106.887,0.387,148.844,0.387c33.558,0,67.103,19.379,91.598,33.529
	c3.907,2.257,10.994,6.35,15.56,8.676c4.592-2.332,11.725-6.445,15.656-8.709c24.557-14.142,58.165-33.497,91.496-33.497
	c41.956,0,80.435,17.968,108.348,50.593c20.572,24.047,33.927,54.058,38.616,86.788c1.006,7.012-2.953,13.792-9.555,16.363
	C434.909,179.703,348.055,193.788,255.999,193.788z M34.268,130.098c60.716,21.462,138.834,33.21,221.731,33.21
	s161.015-11.747,221.731-33.21c-5.066-22.294-15.104-42.607-29.388-59.304c-22.027-25.747-52.281-39.928-85.187-39.928
	c-25.181,0-54.707,17.004-76.269,29.42c-16.905,9.743-23.457,13.102-28.949,13.807c-1.282,0.165-2.574,0.165-3.853,0.003
	c-5.498-0.696-12.033-4.052-28.882-13.784c-21.514-12.428-50.972-29.445-76.357-29.445c-32.907,0-63.161,14.181-85.188,39.928
	C49.372,87.491,39.335,107.802,34.268,130.098z"/>
<g>
</g>
<g>
</g>
<g>
</g>
<g>
</g>
<g>
</g>
<g>
</g>
<g>
</g>
<g>
</g>
<g>
</g>
<g>
</g>
<g>
</g>
<g>
</g>
<g>
</g>
<g>
</g>
<g>
</g>
</svg>
