<?xml version="1.0" encoding="iso-8859-1"?>
<!-- Generator: Adobe Illustrator 19.0.0, SVG Export Plug-In . SVG Version: 6.00 Build 0)  -->
<svg version="1.1" id="Layer_1" xmlns="http://www.w3.org/2000/svg" xmlns:xlink="http://www.w3.org/1999/xlink" x="0px" y="0px"
	 viewBox="0 0 512 512" style="enable-background:new 0 0 512 512;" xml:space="preserve">
<g>
	<path style="fill:#2D527C;" d="M291.434,512c-47.258,0-85.705-38.446-85.705-85.703V413.94c0-7.998,6.483-14.482,14.482-14.482
		c7.998,0,14.482,6.483,14.482,14.482v12.357c0,31.286,25.454,56.74,56.742,56.74s56.74-25.454,56.74-56.74v-94.582
		c0-7.998,6.485-14.482,14.482-14.482s14.482,6.483,14.482,14.482v94.582C377.138,473.553,338.692,512,291.434,512z"/>
	<path style="fill:#2D527C;" d="M362.656,392.381c-7.997,0-14.482-6.483-14.482-14.482V268.834
		c0-47.258,38.447-85.705,85.705-85.705c7.997,0,14.482,6.483,14.482,14.482s-6.485,14.482-14.482,14.482
		c-31.286,0-56.742,25.454-56.742,56.742V377.9C377.138,385.897,370.653,392.381,362.656,392.381z"/>
	<path style="fill:#2D527C;" d="M320.502,345.982H119.618c-30.866,0-55.978-25.111-55.978-55.978V55.978
		C63.639,25.111,88.752,0,119.618,0h200.884c30.866,0,55.977,25.111,55.977,55.978v234.026
		C376.48,320.871,351.369,345.982,320.502,345.982z M119.618,28.963c-14.896,0-27.015,12.12-27.015,27.015v234.026
		c0,14.896,12.12,27.015,27.015,27.015h200.884c14.896,0,27.014-12.12,27.014-27.015V55.978c0-14.896-12.118-27.015-27.014-27.015
		C320.502,28.963,119.618,28.963,119.618,28.963z"/>
</g>
<path style="fill:#CEE8FA;" d="M128.844,256.77V142.471c0-13.259,10.748-24.008,24.008-24.008h134.414
	c13.259,0,24.008,10.748,24.008,24.008V256.77c0,13.259-10.748,24.008-24.008,24.008H152.853
	C139.594,280.777,128.844,270.029,128.844,256.77z"/>
<g>
	<path style="fill:#2D527C;" d="M287.266,295.259H152.853c-21.223,0-38.491-17.266-38.491-38.491V142.471
		c0-21.223,17.266-38.489,38.491-38.489h134.414c21.223,0,38.489,17.266,38.489,38.489V256.77
		C325.756,277.992,308.489,295.259,287.266,295.259z M152.853,132.945c-5.252,0-9.527,4.274-9.527,9.526V256.77
		c0,5.252,4.274,9.527,9.527,9.527h134.414c5.252,0,9.526-4.274,9.526-9.527V142.471c0-5.252-4.273-9.526-9.526-9.526
		L152.853,132.945L152.853,132.945z"/>
	<path style="fill:#2D527C;" d="M239.858,427.377h-39.597c-21.024,0-38.129-17.104-38.129-38.129v-49.721
		c0-7.998,6.483-14.482,14.482-14.482s14.482,6.483,14.482,14.482v49.721c0,5.054,4.111,9.165,9.165,9.165h39.597
		c5.053,0,9.164-4.111,9.164-9.165v-13.036c0-7.998,6.483-14.482,14.482-14.482c7.997,0,14.482,6.483,14.482,14.482v13.036
		C277.985,410.273,260.881,427.377,239.858,427.377z"/>
	<path style="fill:#2D527C;" d="M198.073,212.094H78.121c-7.998,0-14.482-6.483-14.482-14.482c0-7.998,6.483-14.482,14.482-14.482
		h119.952c7.998,0,14.482,6.483,14.482,14.482S206.071,212.094,198.073,212.094z"/>
</g>
<g>
</g>
<g>
</g>
<g>
</g>
<g>
</g>
<g>
</g>
<g>
</g>
<g>
</g>
<g>
</g>
<g>
</g>
<g>
</g>
<g>
</g>
<g>
</g>
<g>
</g>
<g>
</g>
<g>
</g>
</svg>
