<?xml version="1.0" encoding="iso-8859-1"?>
<!-- Generator: Adobe Illustrator 19.0.0, SVG Export Plug-In . SVG Version: 6.00 Build 0)  -->
<svg version="1.1" id="Layer_1" xmlns="http://www.w3.org/2000/svg" xmlns:xlink="http://www.w3.org/1999/xlink" x="0px" y="0px"
	 viewBox="0 0 512.001 512.001" style="enable-background:new 0 0 512.001 512.001;" xml:space="preserve">
<g>
	<path style="fill:#2D527C;" d="M230.127,505.208c-8.292,0-15.013-6.723-15.013-15.013V51.657c0-23.291,18.948-42.239,42.239-42.239
		s42.239,18.948,42.239,42.239v365.86c0,8.29-6.721,15.013-15.013,15.013s-15.013-6.723-15.013-15.013V51.657
		c0-6.733-5.478-12.213-12.213-12.213c-6.733,0-12.213,5.478-12.213,12.213v438.537C245.14,498.486,238.418,505.208,230.127,505.208
		z"/>
	<path style="fill:#2D527C;" d="M402.074,506.71H112.63c-8.292,0-15.013-6.723-15.013-15.013s6.721-15.013,15.013-15.013h289.444
		c8.292,0,15.013,6.723,15.013,15.013S410.366,506.71,402.074,506.71z"/>
	<path style="fill:#2D527C;" d="M416.104,117.04H284.58c-8.292,0-15.013-6.723-15.013-15.013s6.721-15.013,15.013-15.013h131.524
		c8.292,0,15.013,6.723,15.013,15.013S424.395,117.04,416.104,117.04z"/>
	<path style="fill:#2D527C;" d="M474.688,372.396H366.743c-20.574,0-37.312-16.736-37.312-37.312V209.327
		c0-20.574,16.738-37.312,37.312-37.312h107.946c20.574,0,37.312,16.736,37.312,37.312v125.757
		C512,355.66,495.262,372.396,474.688,372.396z M366.743,202.045c-4.017,0-7.286,3.268-7.286,7.286v125.757
		c0,4.017,3.268,7.286,7.286,7.286h107.946c4.017,0,7.286-3.268,7.286-7.286V209.33c0-4.017-3.268-7.286-7.286-7.286
		L366.743,202.045L366.743,202.045z"/>
</g>
<path style="fill:#CEE8FA;" d="M344.444,263.035v72.051c0,12.315,9.984,22.299,22.299,22.299H474.69
	c12.315,0,22.299-9.984,22.299-22.299v-72.051H344.444z"/>
<g>
	<path style="fill:#2D527C;" d="M474.688,372.396H366.743c-20.574,0-37.312-16.736-37.312-37.312v-72.051
		c0-8.29,6.721-15.013,15.013-15.013h152.543c8.292,0,15.013,6.723,15.013,15.013v72.051
		C512,355.66,495.262,372.396,474.688,372.396z M359.457,278.047v57.039c0,4.017,3.268,7.286,7.286,7.286h107.946
		c4.017,0,7.286-3.268,7.286-7.286v-57.039H359.457z"/>
	<path style="fill:#2D527C;" d="M420.716,139.502c-8.292,0-15.013-6.723-15.013-15.013V79.568c0-8.29,6.721-15.013,15.013-15.013
		s15.013,6.723,15.013,15.013v44.923C435.728,132.781,429.007,139.502,420.716,139.502z"/>
	<path style="fill:#2D527C;" d="M227.421,57.461H95.896c-8.292,0-15.013-6.723-15.013-15.013s6.721-15.013,15.013-15.013H227.42
		c8.292,0,15.013,6.723,15.013,15.013S235.713,57.461,227.421,57.461z"/>
	<path style="fill:#2D527C;" d="M145.257,313.136H37.312C16.738,313.136,0,296.396,0,275.823V150.067
		c0-20.574,16.738-37.313,37.312-37.313h107.946c20.574,0,37.312,16.738,37.312,37.313v125.756
		C182.569,296.396,165.831,313.136,145.257,313.136z M37.312,142.781c-4.017,0-7.286,3.27-7.286,7.287v125.756
		c0,4.017,3.268,7.287,7.286,7.287h107.946c4.017,0,7.286-3.27,7.286-7.287V150.067c0-4.017-3.268-7.287-7.286-7.287H37.312V142.781
		z"/>
</g>
<path style="fill:#CEE8FA;" d="M167.556,203.773v72.051c0,12.315-9.984,22.299-22.299,22.299H37.312
	c-12.315,0-22.299-9.984-22.299-22.299v-72.051H167.556z"/>
<g>
	<path style="fill:#2D527C;" d="M145.257,313.136H37.312C16.738,313.136,0,296.396,0,275.823v-72.05
		c0-8.29,6.721-15.013,15.013-15.013h152.543c8.292,0,15.013,6.723,15.013,15.013v72.05
		C182.569,296.396,165.831,313.136,145.257,313.136z M30.026,218.786v57.037c0,4.017,3.268,7.287,7.286,7.287h107.946
		c4.017,0,7.286-3.27,7.286-7.287v-57.037L30.026,218.786L30.026,218.786z"/>
	<path style="fill:#2D527C;" d="M91.284,80.24c-8.292,0-15.013-6.723-15.013-15.013V20.304c0-8.29,6.721-15.013,15.013-15.013
		s15.013,6.723,15.013,15.013v44.923C106.297,73.518,99.576,80.24,91.284,80.24z"/>
</g>
<g>
</g>
<g>
</g>
<g>
</g>
<g>
</g>
<g>
</g>
<g>
</g>
<g>
</g>
<g>
</g>
<g>
</g>
<g>
</g>
<g>
</g>
<g>
</g>
<g>
</g>
<g>
</g>
<g>
</g>
</svg>
