<?xml version="1.0" encoding="iso-8859-1"?>
<!-- Generator: Adobe Illustrator 19.0.0, SVG Export Plug-In . SVG Version: 6.00 Build 0)  -->
<svg version="1.1" id="Layer_1" xmlns="http://www.w3.org/2000/svg" xmlns:xlink="http://www.w3.org/1999/xlink" x="0px" y="0px"
	 viewBox="0 0 512 512" style="enable-background:new 0 0 512 512;" xml:space="preserve">
<path style="fill:#2D527C;" d="M451.17,512H60.827c-28.601,0-51.869-23.268-51.869-51.871V138.825
	c0-28.603,23.268-51.871,51.869-51.871H451.17c28.603,0,51.871,23.268,51.871,51.871v16.53c0,8.234-6.677,14.911-14.911,14.911
	s-14.911-6.677-14.911-14.911v-16.53c0-12.158-9.892-22.05-22.05-22.05H60.827c-12.157,0-22.048,9.892-22.048,22.05v321.303
	c0,12.158,9.892,22.05,22.048,22.05H451.17c12.158,0,22.05-9.892,22.05-22.05v-233.28c0-8.234,6.677-14.911,14.911-14.911
	s14.911,6.677,14.911,14.911V460.13C503.041,488.731,479.773,512,451.17,512z"/>
<path style="fill:#CEE8FA;" d="M377.309,214.88c5.421-6.013,8.512-14.169,7.844-23.046c-1.175-15.62-14.226-28.024-29.884-28.466
	c-17.453-0.492-31.757,13.509-31.757,30.853c0,0.407,0.015,0.81,0.031,1.212h-135.09c0.015-0.403,0.031-0.805,0.031-1.212
	c0-17.342-14.304-31.345-31.757-30.853c-15.658,0.441-28.709,12.845-29.884,28.466c-0.666,8.876,2.423,17.032,7.844,23.046
	c2.945,3.267,2.945,8.138,0,11.405c-5.421,6.013-8.512,14.17-7.844,23.046c1.175,15.619,14.226,28.024,29.884,28.466
	c17.453,0.492,31.757-13.51,31.757-30.853c0-0.407-0.015-0.81-0.031-1.212h135.091c-0.015,0.403-0.031,0.805-0.031,1.212
	c0,17.342,14.304,31.345,31.757,30.853c15.658-0.441,28.709-12.845,29.884-28.466c0.668-8.876-2.423-17.032-7.844-23.046
	C374.364,223.019,374.364,218.147,377.309,214.88z"/>
<path style="fill:#2D527C;" d="M354.377,292.719c-20.469-0.003-37.844-13.51-43.68-32.077H201.302
	c-5.961,18.966-23.954,32.584-44.996,32.058c-23.125-0.653-42.598-19.211-44.331-42.251c-0.811-10.795,2.083-21.216,8.211-29.867
	c-6.127-8.653-9.022-19.071-8.211-29.864c1.733-23.043,21.207-41.6,44.332-42.254c0.44-0.012,0.874-0.019,1.312-0.019
	c20.471,0,37.847,13.509,43.683,32.079h109.391c5.961-18.966,23.951-32.609,44.997-32.059c23.125,0.653,42.598,19.211,44.331,42.252
	c0.811,10.794-2.083,21.215-8.211,29.866c6.127,8.653,9.022,19.071,8.211,29.866c-1.733,23.041-21.207,41.599-44.332,42.252
	C355.25,292.714,354.815,292.719,354.377,292.719z M188.453,230.823h135.093c4.057,0,7.94,1.654,10.751,4.579
	c2.812,2.925,4.311,6.869,4.148,10.923c-0.009,0.206-0.021,0.412-0.021,0.619c0,8.796,7.159,15.953,15.956,15.954l0.47-0.007
	c8.053-0.227,14.833-6.675,15.437-14.678c0.334-4.436-1.105-8.676-4.051-11.945c-8.062-8.943-8.062-22.43-0.001-31.372
	c2.948-3.267,4.385-7.51,4.053-11.946c-0.602-8.002-7.382-14.45-15.435-14.678l-0.473-0.007c-8.797,0-15.954,7.157-15.954,15.954
	c0,0.209,0.012,0.415,0.021,0.622c0.16,4.054-1.336,7.998-4.148,10.923s-6.693,4.578-10.751,4.578H188.453
	c-4.057,0-7.938-1.652-10.751-4.578c-2.813-2.926-4.309-6.869-4.148-10.923c0.009-0.207,0.021-0.413,0.021-0.622
	c0-8.797-7.157-15.954-15.954-15.954l-0.471,0.007c-8.053,0.227-14.833,6.675-15.437,14.679c-0.334,4.434,1.105,8.676,4.051,11.943
	c8.062,8.943,8.062,22.43,0.001,31.372c-2.948,3.268-4.385,7.51-4.053,11.948c0.602,8.001,7.382,14.448,15.435,14.676l0.473,0.007
	c8.797,0,15.954-7.157,15.954-15.954c0-0.207-0.012-0.413-0.021-0.619c-0.161-4.054,1.336-7.998,4.148-10.923
	C180.512,232.476,184.396,230.823,188.453,230.823z"/>
<path style="fill:#CEE8FA;" d="M377.309,372.668c5.421-6.013,8.512-14.169,7.844-23.046c-1.175-15.62-14.226-28.024-29.884-28.466
	c-17.453-0.492-31.757,13.509-31.757,30.853c0,0.407,0.015,0.81,0.031,1.212h-135.09c0.015-0.403,0.031-0.805,0.031-1.212
	c0-17.342-14.304-31.345-31.757-30.853c-15.658,0.441-28.709,12.845-29.884,28.466c-0.666,8.876,2.423,17.032,7.844,23.046
	c2.945,3.267,2.945,8.138,0,11.405c-5.421,6.013-8.512,14.169-7.844,23.046c1.175,15.619,14.226,28.024,29.884,28.466
	c17.453,0.492,31.757-13.51,31.757-30.853c0-0.407-0.015-0.81-0.031-1.212h135.091c-0.015,0.403-0.031,0.805-0.031,1.212
	c0,17.342,14.304,31.345,31.757,30.853c15.658-0.441,28.709-12.845,29.884-28.466c0.668-8.876-2.423-17.032-7.844-23.046
	C374.364,380.807,374.364,375.935,377.309,372.668z"/>
<g>
	<path style="fill:#2D527C;" d="M354.377,450.509c-20.471-0.003-37.846-13.51-43.68-32.079H201.303
		c-5.961,18.966-23.955,32.584-44.997,32.059c-23.125-0.653-42.598-19.211-44.331-42.252c-0.811-10.794,2.083-21.215,8.211-29.866
		c-6.127-8.653-9.022-19.071-8.211-29.864c1.733-23.043,21.207-41.6,44.332-42.254c0.44-0.012,0.874-0.019,1.312-0.019
		c20.471,0,37.846,13.507,43.682,32.077h109.394c5.961-18.966,23.951-32.609,44.996-32.058
		c23.125,0.653,42.598,19.211,44.331,42.252c0.811,10.794-2.083,21.215-8.211,29.866c6.127,8.653,9.022,19.071,8.211,29.864
		c-1.733,23.043-21.207,41.6-44.332,42.254C355.25,450.501,354.815,450.509,354.377,450.509z M188.453,388.609h135.093
		c4.057,0,7.938,1.652,10.751,4.578s4.309,6.869,4.148,10.923c-0.009,0.21-0.021,0.413-0.021,0.622
		c0,8.796,7.159,15.953,15.956,15.954l0.47-0.007c8.053-0.227,14.833-6.675,15.437-14.679c0.334-4.434-1.105-8.676-4.051-11.943
		c-8.062-8.943-8.062-22.43-0.001-31.372c2.948-3.268,4.385-7.51,4.053-11.946c-0.602-8.003-7.382-14.45-15.435-14.678l-0.473-0.007
		c-8.797,0-15.954,7.157-15.954,15.954c0,0.207,0.012,0.413,0.021,0.619c0.161,4.054-1.336,7.998-4.148,10.923
		c-2.811,2.925-6.693,4.579-10.751,4.579H188.453c-4.057,0-7.94-1.654-10.751-4.579c-2.812-2.925-4.311-6.869-4.148-10.923
		c0.009-0.206,0.021-0.412,0.021-0.619c0-8.797-7.157-15.954-15.954-15.954l-0.471,0.007c-8.053,0.227-14.833,6.675-15.437,14.679
		c-0.334,4.434,1.105,8.675,4.051,11.943c8.062,8.943,8.062,22.43,0.001,31.372c-2.948,3.267-4.385,7.51-4.053,11.946
		c0.602,8.002,7.382,14.45,15.435,14.678l0.473,0.007c8.797,0,15.954-7.157,15.954-15.954c0-0.209-0.012-0.412-0.021-0.617
		c-0.16-4.054,1.336-8.001,4.148-10.925C180.514,390.264,184.396,388.609,188.453,388.609z"/>
	<path style="fill:#2D527C;" d="M168.772,108.847c-8.234,0-14.911-6.677-14.911-14.911V35.742C153.861,16.033,169.894,0,189.603,0
		h132.792c19.709,0,35.742,16.033,35.742,35.742v9.734c0,8.234-6.677,14.911-14.911,14.911s-14.911-6.677-14.911-14.911v-9.734
		c0-3.264-2.656-5.921-5.921-5.921H189.603c-3.264,0-5.921,2.656-5.921,5.921v58.194
		C183.682,102.17,177.007,108.847,168.772,108.847z"/>
</g>
<g>
</g>
<g>
</g>
<g>
</g>
<g>
</g>
<g>
</g>
<g>
</g>
<g>
</g>
<g>
</g>
<g>
</g>
<g>
</g>
<g>
</g>
<g>
</g>
<g>
</g>
<g>
</g>
<g>
</g>
</svg>
