<?xml version="1.0" encoding="iso-8859-1"?>
<!-- Generator: Adobe Illustrator 19.0.0, SVG Export Plug-In . SVG Version: 6.00 Build 0)  -->
<svg version="1.1" id="Layer_1" xmlns="http://www.w3.org/2000/svg" xmlns:xlink="http://www.w3.org/1999/xlink" x="0px" y="0px"
	 viewBox="0 0 512 512" style="enable-background:new 0 0 512 512;" xml:space="preserve">
<path style="fill:#CEE8FA;" d="M202.673,117.204V67.42c0-29.452,23.876-53.327,53.327-53.327l0,0
	c29.452,0,53.327,23.876,53.327,53.327v49.785"/>
<path style="fill:#2D527C;" d="M309.329,131.297c-7.782,0-14.092-6.311-14.092-14.092V67.42c0-21.635-17.602-39.235-39.236-39.235
	s-39.236,17.6-39.236,39.235v49.785c0,7.782-6.311,14.092-14.092,14.092c-7.782,0-14.092-6.311-14.092-14.092V67.42
	C188.579,30.244,218.824,0,256,0s67.421,30.244,67.421,67.42v49.785C323.421,124.986,317.111,131.297,309.329,131.297z"/>
<circle style="fill:#CEE8FA;" cx="256" cy="318.35" r="105.24"/>
<g>
	<path style="fill:#2D527C;" d="M255.999,437.69c-65.801,0-119.334-53.533-119.334-119.337c0-65.801,53.532-119.335,119.334-119.335
		s119.337,53.533,119.337,119.335C375.335,384.157,321.802,437.69,255.999,437.69z M255.999,227.205
		c-50.259,0-91.149,40.891-91.149,91.15c0,50.261,40.889,91.152,91.149,91.152c50.261,0,91.152-40.891,91.152-91.152
		S306.259,227.205,255.999,227.205z"/>
	<path style="fill:#2D527C;" d="M256,372.456c-7.782,0-14.092-6.311-14.092-14.092v-80.019c0-7.782,6.311-14.092,14.092-14.092
		c7.782,0,14.092,6.311,14.092,14.092v80.019C270.092,366.146,263.783,372.456,256,372.456z"/>
	<path style="fill:#2D527C;" d="M296.01,332.446h-80.019c-7.782,0-14.092-6.311-14.092-14.092c0-7.782,6.311-14.092,14.092-14.092
		h80.019c7.782,0,14.092,6.311,14.092,14.092C310.103,326.136,303.792,332.446,296.01,332.446z"/>
	<path style="fill:#2D527C;" d="M341.95,512h-171.9c-29.043,0-52.674-23.63-52.674-52.673V233.779
		c0-76.438,62.186-138.624,138.624-138.624s138.624,62.186,138.624,138.624v143.046c0,7.782-6.311,14.092-14.092,14.092
		c-7.782,0-14.092-6.311-14.092-14.092V233.779c0-60.896-49.542-110.439-110.439-110.439s-110.439,49.542-110.439,110.439v225.549
		c0,13.503,10.985,24.489,24.489,24.489h171.9c13.503,0,24.489-10.985,24.489-24.489v-15.754c0-7.782,6.311-14.092,14.092-14.092
		c7.782,0,14.092,6.311,14.092,14.092v15.754C394.624,488.371,370.995,512,341.95,512z"/>
</g>
<g>
</g>
<g>
</g>
<g>
</g>
<g>
</g>
<g>
</g>
<g>
</g>
<g>
</g>
<g>
</g>
<g>
</g>
<g>
</g>
<g>
</g>
<g>
</g>
<g>
</g>
<g>
</g>
<g>
</g>
</svg>
