<?xml version="1.0" encoding="iso-8859-1"?>
<!-- Generator: Adobe Illustrator 19.0.0, SVG Export Plug-In . SVG Version: 6.00 Build 0)  -->
<svg version="1.1" id="Layer_1" xmlns="http://www.w3.org/2000/svg" xmlns:xlink="http://www.w3.org/1999/xlink" x="0px" y="0px"
	 viewBox="0 0 512 512" style="enable-background:new 0 0 512 512;" xml:space="preserve">
<path style="fill:#CEE8FA;" d="M183.574,168.659V86.554c0-40,32.425-72.425,72.425-72.425l0,0c40,0,72.425,32.425,72.425,72.425
	v82.104h-144.85V168.659z"/>
<g>
	<path style="fill:#2D527C;" d="M328.424,182.787h-144.85c-7.803,0-14.128-6.327-14.128-14.128V86.554
		C169.446,38.827,208.273,0,255.999,0s86.553,38.827,86.553,86.554v82.104C342.552,176.46,336.227,182.787,328.424,182.787z
		 M197.702,154.53h116.594V86.554c0-32.146-26.153-58.298-58.297-58.298s-58.297,26.153-58.297,58.298V154.53z"/>
	<path style="fill:#2D527C;" d="M351.015,182.787h-190.03c-7.803,0-14.128-6.327-14.128-14.128c0-7.802,6.325-14.128,14.128-14.128
		h190.03c7.803,0,14.128,6.327,14.128,14.128S358.818,182.787,351.015,182.787z"/>
	<path style="fill:#2D527C;" d="M255.999,512c-7.803,0-14.128-6.327-14.128-14.128v-40.18c0-7.802,6.325-14.128,14.128-14.128
		s14.128,6.327,14.128,14.128v40.18C270.127,505.675,263.802,512,255.999,512z"/>
	<path style="fill:#2D527C;" d="M329.046,219.445c-7.803,0-14.128-6.327-14.128-14.128v-43.755c0-7.802,6.325-14.128,14.128-14.128
		s14.128,6.327,14.128,14.128v43.755C343.174,213.12,336.849,219.445,329.046,219.445z"/>
	<path style="fill:#2D527C;" d="M256.621,470.801c-47.726,0-86.553-38.827-86.553-86.554V161.562
		c0-7.802,6.325-14.128,14.128-14.128s14.128,6.327,14.128,14.128v222.684c0,32.146,26.153,58.298,58.297,58.298
		c32.146,0,58.298-26.153,58.298-58.298v-115.81c0-7.802,6.325-14.128,14.128-14.128s14.128,6.327,14.128,14.128v115.81
		C343.174,431.974,304.346,470.801,256.621,470.801z"/>
	<path style="fill:#2D527C;" d="M245.511,261.805h-59.732c-7.803,0-14.128-6.327-14.128-14.128c0-7.802,6.325-14.128,14.128-14.128
		h59.732c7.803,0,14.128,6.327,14.128,14.128C259.639,255.479,253.314,261.805,245.511,261.805z"/>
	<path style="fill:#2D527C;" d="M245.511,353.408h-59.732c-7.803,0-14.128-6.327-14.128-14.128s6.325-14.128,14.128-14.128h59.732
		c7.803,0,14.128,6.327,14.128,14.128S253.314,353.408,245.511,353.408z"/>
</g>
<g>
</g>
<g>
</g>
<g>
</g>
<g>
</g>
<g>
</g>
<g>
</g>
<g>
</g>
<g>
</g>
<g>
</g>
<g>
</g>
<g>
</g>
<g>
</g>
<g>
</g>
<g>
</g>
<g>
</g>
</svg>
