<?xml version="1.0" encoding="iso-8859-1"?>
<!-- Generator: Adobe Illustrator 19.0.0, SVG Export Plug-In . SVG Version: 6.00 Build 0)  -->
<svg version="1.1" id="Layer_1" xmlns="http://www.w3.org/2000/svg" xmlns:xlink="http://www.w3.org/1999/xlink" x="0px" y="0px"
	 viewBox="0 0 460 460" style="enable-background:new 0 0 460 460;" xml:space="preserve">
<g id="XMLID_3255_">
	<path id="XMLID_1302_" style="fill:#D4D9F4;" d="M451.055,244.884l-48.475,85C397.249,339.231,387.329,345,376.584,345H262.792
		l-56.963,99.884C200.498,454.231,190.577,460,179.833,460H83.416c-10.744,0-20.665-5.769-25.996-15.116l-48.475-85
		c-5.26-9.223-5.26-20.545,0-29.769L66.04,230L8.945,129.884c-5.26-9.223-5.26-20.545,0-29.769l48.475-85
		C62.75,5.769,72.671,0,83.416,0h96.417c10.744,0,20.665,5.769,25.996,15.116L262.792,115h113.793
		c10.744,0,20.665,5.769,25.996,15.116l48.475,85C456.315,224.339,456.315,235.661,451.055,244.884z"/>
	<path id="XMLID_1454_" style="fill:#B7C0ED;" d="M86.833,411.492L53.5,351.772c-2.342-4.197-2.342-9.348,0-13.545l33.333-59.72
		c2.374-4.253,6.792-6.878,11.576-6.878h66.429c4.785,0,9.203,2.625,11.577,6.878l33.333,59.72c2.342,4.197,2.342,9.348,0,13.545
		l-33.333,59.72c-2.374,4.253-6.792,6.878-11.577,6.878H98.41C93.625,418.37,89.207,415.745,86.833,411.492z"/>
	<path id="XMLID_1456_" style="fill:#9DA5E0;" d="M170.628,348.381l-16.642,29.815c-1.185,2.123-3.391,3.434-5.78,3.434h-33.165
		c-2.389,0-4.594-1.311-5.78-3.434L92.62,348.381c-1.169-2.095-1.169-4.667,0-6.762l16.642-29.815
		c1.185-2.123,3.391-3.434,5.78-3.434h33.165c2.389,0,4.594,1.311,5.78,3.434l16.642,29.815
		C171.797,343.714,171.797,346.286,170.628,348.381z"/>
	<path id="XMLID_1458_" style="fill:#BFE1F7;" d="M451.055,244.884l-48.475,85C397.249,339.231,387.329,345,376.584,345H262.792
		l-65.584-115H66.04L8.945,129.884c-5.26-9.223-5.26-20.545,0-29.769l48.475-85C62.75,5.769,72.671,0,83.416,0h96.417
		c10.744,0,20.665,5.769,25.996,15.116L262.792,115h113.792c10.744,0,20.665,5.769,25.996,15.116l48.475,85
		C456.315,224.339,456.315,235.661,451.055,244.884z"/>
	<path id="XMLID_2976_" style="fill:#96C8EF;" d="M282.589,297.969l-34.074-61.047c-2.394-4.29-2.394-9.556,0-13.846l34.074-61.047
		c2.427-4.348,6.943-7.031,11.834-7.031h67.905c4.891,0,9.407,2.683,11.834,7.031l34.074,61.047c2.394,4.29,2.394,9.556,0,13.846
		l-34.074,61.047c-2.427,4.348-6.943,7.031-11.834,7.031h-67.905C289.532,305,285.016,302.317,282.589,297.969z"/>
	<path id="XMLID_2977_" style="fill:#78AFCE;" d="M367.38,233.381l-16.642,29.815c-1.185,2.123-3.391,3.434-5.78,3.434h-33.165
		c-2.389,0-4.594-1.311-5.78-3.434l-16.642-29.815c-1.169-2.095-1.169-4.667,0-6.762l16.642-29.815
		c1.185-2.123,3.391-3.434,5.78-3.434h33.165c2.389,0,4.594,1.311,5.78,3.434l16.642,29.815
		C368.549,228.714,368.549,231.286,367.38,233.381z"/>
	<path id="XMLID_1459_" style="fill:#ACE5B8;" d="M262.792,115l-65.584,115H66.04L8.945,129.884c-5.26-9.223-5.26-20.545,0-29.769
		l48.475-85C62.751,5.769,72.671,0,83.415,0h96.417c10.744,0,20.665,5.769,25.996,15.116L262.792,115z"/>
	<path id="XMLID_2978_" style="fill:#8DCC9A;" d="M89.105,181.492l-33.333-59.72c-2.342-4.197-2.342-9.348,0-13.545l33.333-59.72
		c2.374-4.253,6.792-6.878,11.576-6.878h66.429c4.785,0,9.203,2.625,11.577,6.878l33.333,59.72c2.342,4.197,2.342,9.348,0,13.545
		l-33.333,59.72c-2.374,4.253-6.792,6.878-11.577,6.878h-66.429C95.897,188.37,91.479,185.745,89.105,181.492z"/>
	<path id="XMLID_2979_" style="fill:#6AA374;" d="M172.9,118.381l-16.642,29.815c-1.185,2.123-3.391,3.434-5.78,3.434h-33.165
		c-2.389,0-4.594-1.311-5.78-3.434l-16.642-29.815c-1.169-2.095-1.169-4.667,0-6.762l16.642-29.815
		c1.185-2.123,3.391-3.434,5.78-3.434h33.165c2.389,0,4.594,1.311,5.78,3.434l16.642,29.815
		C174.069,113.714,174.069,116.286,172.9,118.381z"/>
</g>
<g>
</g>
<g>
</g>
<g>
</g>
<g>
</g>
<g>
</g>
<g>
</g>
<g>
</g>
<g>
</g>
<g>
</g>
<g>
</g>
<g>
</g>
<g>
</g>
<g>
</g>
<g>
</g>
<g>
</g>
</svg>
