<?xml version="1.0" encoding="iso-8859-1"?>
<!-- Generator: Adobe Illustrator 19.0.0, SVG Export Plug-In . SVG Version: 6.00 Build 0)  -->
<svg version="1.1" id="Layer_1" xmlns="http://www.w3.org/2000/svg" xmlns:xlink="http://www.w3.org/1999/xlink" x="0px" y="0px"
	 viewBox="0 0 460 460" style="enable-background:new 0 0 460 460;" xml:space="preserve">
<g id="XMLID_3093_">
	<path id="XMLID_2368_" style="fill:#97BFB3;" d="M430,94l-65.828,344.089C360.433,451.044,348.262,460,334.395,460h-5.796
		c-13.31,0-25.126-8.263-29.335-20.513l-46.076-134.105c-0.024-0.069-0.047-0.137-0.071-0.205
		c-3.222-9.18-12.08-15.177-21.808-15.177h-2.618c-9.728,0-18.586,5.997-21.807,15.176c-0.024,0.068-0.048,0.137-0.071,0.205
		l-46.076,134.105C156.528,451.737,144.711,460,131.401,460h-5.796c-13.867,0-26.038-8.956-29.777-21.911L30,94
		c0-51.915,43.379-94,96.89-94h47.414c20.184,0,38.098,9.388,49.383,23.903c1.665,2.141,3.85,3.782,6.313,4.818
		c2.463-1.036,4.648-2.678,6.313-4.818C247.598,9.388,265.512,0,285.696,0h47.414C386.621,0,430,42.085,430,94z"/>
	<path id="XMLID_2358_" style="fill:#83A89B;" d="M358.261,449.066C352.518,455.828,343.854,460,334.395,460h-5.796
		c-13.31,0-25.126-8.263-29.335-20.513l-46.076-134.105c-0.024-0.069-0.047-0.137-0.071-0.205
		c-3.222-9.18-12.08-15.177-21.808-15.177h-2.618c-9.728,0-18.586,5.997-21.807,15.176c-0.024,0.068-0.048,0.137-0.071,0.205
		l-46.076,134.105C156.528,451.737,144.711,460,131.401,460h-5.796c-9.459,0-18.123-4.172-23.866-10.934
		c0.007-0.005,0.012-0.01,0.019-0.015c-2.679-3.149-4.741-6.844-5.93-10.962L30,94c0-51.915,43.379-94,96.89-94h36.089
		C128.196,0,100,42.085,100,94l23.8,191.39c3.233,26.001,38.915,30.724,48.802,6.46l19.139-46.971
		c0.039-0.095,0.078-0.191,0.118-0.286c5.315-12.771,19.931-21.115,35.982-21.115h4.319c16.051,0,30.666,8.344,35.982,21.115
		c0.039,0.095,0.079,0.19,0.118,0.286l76.025,186.581C347.102,438.374,351.985,444.375,358.261,449.066z"/>
	<path id="XMLID_2354_" style="fill:#AAD1BD;" d="M30,94c0-51.915,43.379-94,96.89-94h47.414c20.184,0,38.098,9.388,49.383,23.903
		c1.665,2.141,3.85,3.782,6.313,4.818c2.463-1.036,4.648-2.678,6.313-4.818C247.598,9.388,265.512,0,285.696,0h47.414
		C386.621,0,430,42.085,430,94c-2.887,15.089-16.083,26-31.446,26l0,0c-11.514,0-22.886-2.739-33.044-8.162
		C328.16,91.894,281.12,80,230,80s-98.16,11.894-135.511,31.838C84.332,117.261,72.96,120,61.446,120l0,0
		C46.083,120,32.887,109.089,30,94z"/>
	<path id="XMLID_2353_" style="fill:#93BAAB;" d="M30,94c0-51.915,43.379-94,96.89-94h36.089C128.196,0,100,42.085,100,94
		l1.756,14.121c-2.46,1.206-4.884,2.444-7.267,3.717C84.332,117.261,72.96,120,61.446,120C46.083,120,32.887,109.089,30,94z"/>
	<path id="XMLID_2351_" style="fill:#D6EDDF;" d="M389.211,83.215c-9.191,9.191-27.819,5.466-41.605-8.321
		c-13.787-13.787-17.512-32.414-8.321-41.605s27.819-5.466,41.605,8.321C394.677,55.397,398.402,74.024,389.211,83.215z"/>
</g>
<g>
</g>
<g>
</g>
<g>
</g>
<g>
</g>
<g>
</g>
<g>
</g>
<g>
</g>
<g>
</g>
<g>
</g>
<g>
</g>
<g>
</g>
<g>
</g>
<g>
</g>
<g>
</g>
<g>
</g>
</svg>
