<?xml version="1.0" encoding="iso-8859-1"?>
<!-- Generator: Adobe Illustrator 19.0.0, SVG Export Plug-In . SVG Version: 6.00 Build 0)  -->
<svg version="1.1" id="Layer_1" xmlns="http://www.w3.org/2000/svg" xmlns:xlink="http://www.w3.org/1999/xlink" x="0px" y="0px"
	 viewBox="0 0 460 460" style="enable-background:new 0 0 460 460;" xml:space="preserve">
<g id="XMLID_2614_">
	<path id="XMLID_905_" style="fill:#9AC1BE;" d="M382.683,420H35.477c-5.695,0-10.233-4.773-9.963-10.476L43.607,28.573
		C44.367,12.577,57.523,0,73.495,0h260.71c15.972,0,29.128,12.577,29.888,28.573L382.683,420z"/>
	<path id="XMLID_903_" style="fill:#A8CCC9;" d="M125.33,0c-15.972,0-29.128,12.577-29.888,28.573L77.349,409.524
		C77.078,415.227,81.617,420,87.312,420H35.566c-5.695,0-10.233-4.773-9.963-10.476L43.696,28.573C44.456,12.577,57.612,0,73.584,0
		H125.33z"/>
	<path id="XMLID_906_" style="fill:#8DB5B0;" d="M330.926,409.524L312.833,28.573C312.073,12.577,298.917,0,282.945,0h51.746
		c15.972,0,29.128,12.577,29.888,28.573l18.093,380.951c0.271,5.703-4.268,10.476-9.963,10.476h-51.746
		C326.658,420,331.197,415.227,330.926,409.524z"/>
	<path id="XMLID_909_" style="fill:#83A5A2;" d="M382.428,420H231.453c-4.748-9.627-8.276-19.705-10.599-30h-0.457
		c-4.453-19.733-4.443-40.267,0.01-60h0.457c5.435-24.08,17.484-46.963,36.182-65.711c31.647-31.73,75.096-44.404,116.179-38.041
		L378.154,330l2.85,60L382.428,420z"/>
	<path id="XMLID_910_" style="fill:#769390;" d="M378.866,330h-51.26l-4.838-101.87c16.794-3.88,34.184-4.513,51.171-1.882
		L378.866,330z"/>
	<path id="XMLID_911_" style="fill:#515151;" d="M0.023,369.049l0.95-20C1.479,338.385,10.25,330,20.898,330H377.15l2.85,60H19.948
		C8.559,390-0.519,380.455,0.023,369.049z"/>
	<path id="XMLID_912_" style="fill:#3A3A3A;" d="M380,390H220.396c-4.453-19.733-4.443-40.267,0.01-60h0.457l0,0H377.15L380,390z"/>
	<path id="XMLID_913_" style="fill:#8C8C8C;" d="M430.787,430.711c-38.95,39.052-102.101,39.052-141.051,0s-38.95-102.369,0-141.421
		s102.101-39.052,141.051,0S469.738,391.658,430.787,430.711z"/>
	<path id="XMLID_922_" style="fill:#BCBCBC;" d="M360.262,360l70.526,70.711c-38.95,39.052-102.101,39.052-141.051,0L360.262,360z"
		/>
	<path id="XMLID_933_" style="fill:#BCBCBC;" d="M289.736,289.289L360.262,360l70.526-70.711
		C391.837,250.237,328.686,250.237,289.736,289.289z"/>
	<path id="XMLID_919_" style="fill:#CECECE;" d="M360.262,360l42.315,42.426c-23.37,23.431-61.26,23.431-84.631,0L360.262,360z"/>
	<path id="XMLID_869_" style="fill:#CECECE;" d="M402.577,317.574L360.262,360l-42.315-42.426
		C341.317,294.142,379.207,294.142,402.577,317.574z"/>
	<path id="XMLID_857_" style="fill:#515151;" d="M381.419,381.213c-11.685,11.716-30.63,11.716-42.315,0s-11.685-30.711,0-42.426
		c11.685-11.716,30.63-11.716,42.315,0C393.105,350.503,393.105,369.497,381.419,381.213z"/>
	<path id="XMLID_865_" style="fill:#7F7F7F;" d="M360.262,360l21.158,21.213c-11.685,11.716-30.63,11.716-42.315,0L360.262,360z"/>
	<path id="XMLID_864_" style="fill:#7F7F7F;" d="M381.419,338.787L360.262,360l-21.158-21.213
		C350.789,327.071,369.734,327.071,381.419,338.787z"/>
	<path id="XMLID_908_" style="fill:#D3625F;" d="M159.211,95c0-8.284,6.698-15,14.961-15h14.961V65c0-8.284,6.698-15,14.961-15
		s14.961,6.716,14.961,15v14.77V80h14.961c8.263,0,14.961,6.716,14.961,15s-6.698,15-14.961,15h-14.961v15
		c0,8.284-6.698,15-14.961,15s-14.961-6.716-14.961-15v-15h-0.229h-14.731C165.909,110,159.211,103.284,159.211,95z"/>
	<path id="XMLID_907_" style="fill:#C6524A;" d="M219.054,79.77V80h14.961c8.263,0,14.961,6.716,14.961,15s-6.698,15-14.961,15
		h-14.961v15c0,8.284-6.698,15-14.961,15s-14.961-6.716-14.961-15v-15h-0.229L219.054,79.77z"/>
</g>
<g>
</g>
<g>
</g>
<g>
</g>
<g>
</g>
<g>
</g>
<g>
</g>
<g>
</g>
<g>
</g>
<g>
</g>
<g>
</g>
<g>
</g>
<g>
</g>
<g>
</g>
<g>
</g>
<g>
</g>
</svg>
