<?xml version="1.0" encoding="iso-8859-1"?>
<!-- Generator: Adobe Illustrator 19.0.0, SVG Export Plug-In . SVG Version: 6.00 Build 0)  -->
<svg version="1.1" id="Layer_1" xmlns="http://www.w3.org/2000/svg" xmlns:xlink="http://www.w3.org/1999/xlink" x="0px" y="0px"
	 viewBox="0 0 460 460" style="enable-background:new 0 0 460 460;" xml:space="preserve">
<g id="XMLID_2663_">
	<path id="XMLID_976_" style="fill:#373F3E;" d="M460,160v90c0,11.046-8.954,20-20,20h-10v40c0,5.523-4.477,10-10,10
		c-11.046,0-20-8.954-20-20v-30H260c-11.046,0-20-8.954-20-20v-30h-20v30c0,11.046-8.954,20-20,20H60v30c0,11.046-8.954,20-20,20
		c-5.523,0-10-4.477-10-10v-40H20c-11.046,0-20-8.954-20-20v-90c0-11.046,8.954-20,20-20h180c11.046,0,20,8.954,20,20v30h20v-30
		c0-11.046,8.954-20,20-20h180C451.046,140,460,148.954,460,160z"/>
	<path id="XMLID_978_" style="fill:#29302F;" d="M30,270h30v10H30V270z"/>
	<path id="XMLID_973_" style="fill:#29302F;" d="M220,190h20v30h-20V190z"/>
	<path id="XMLID_979_" style="fill:#29302F;" d="M430,270v10h-30v-10H430z"/>
	<path id="XMLID_901_" style="fill:#7CA59D;" d="M190,180v50c0,5.523-4.477,10-10,10H40c-5.523,0-10-4.477-10-10v-50
		c0-5.523,4.477-10,10-10h140C185.523,170,190,174.477,190,180z"/>
	<path id="XMLID_971_" style="fill:#A1D3CB;" d="M190,180v50c0,5.523-4.477,10-10,10H90l20-70h70C185.523,170,190,174.477,190,180z"
		/>
	<path id="XMLID_894_" style="fill:#CCE5E1;" d="M130,170l-20,70H80H70l20-70h10H130z"/>
	<path id="XMLID_898_" style="fill:#70938C;" d="M190,180H30c0-5.523,4.477-10,10-10h140C185.523,170,190,174.477,190,180z"/>
	<path id="XMLID_893_" style="fill:#BED3CF;" d="M90,170h40l-2.857,10h-40L90,170z"/>
	<path id="XMLID_895_" style="fill:#DFEFEC;" d="M100,170l-20,70H70l20-70H100z"/>
	<path id="XMLID_885_" style="fill:#DCE5E1;" d="M90,170h10l-2.857,10h-10L90,170z"/>
	<path id="XMLID_1002_" style="fill:#7CA59D;" d="M430,180v50c0,5.523-4.477,10-10,10H280c-5.523,0-10-4.477-10-10v-50
		c0-5.523,4.477-10,10-10h140C425.523,170,430,174.477,430,180z"/>
	<path id="XMLID_998_" style="fill:#A1D3CB;" d="M430,180v50c0,5.523-4.477,10-10,10h-90l20-70h70C425.523,170,430,174.477,430,180z
		"/>
	<path id="XMLID_995_" style="fill:#CCE5E1;" d="M370,170l-20,70h-30h-10l20-70h10H370z"/>
	<path id="XMLID_993_" style="fill:#70938C;" d="M430,180H270c0-5.523,4.477-10,10-10h140C425.523,170,430,174.477,430,180z"/>
	<path id="XMLID_991_" style="fill:#BED3CF;" d="M330,170h40l-2.857,10h-40L330,170z"/>
	<path id="XMLID_989_" style="fill:#DFEFEC;" d="M340,170l-20,70h-10l20-70H340z"/>
	<path id="XMLID_982_" style="fill:#DCE5E1;" d="M330,170h10l-2.857,10h-10L330,170z"/>
</g>
<g>
</g>
<g>
</g>
<g>
</g>
<g>
</g>
<g>
</g>
<g>
</g>
<g>
</g>
<g>
</g>
<g>
</g>
<g>
</g>
<g>
</g>
<g>
</g>
<g>
</g>
<g>
</g>
<g>
</g>
</svg>
