<?xml version="1.0" encoding="iso-8859-1"?>
<!-- Generator: Adobe Illustrator 19.0.0, SVG Export Plug-In . SVG Version: 6.00 Build 0)  -->
<svg version="1.1" id="Layer_1" xmlns="http://www.w3.org/2000/svg" xmlns:xlink="http://www.w3.org/1999/xlink" x="0px" y="0px"
	 viewBox="0 0 460 460" style="enable-background:new 0 0 460 460;" xml:space="preserve">
<path id="XMLID_476_" style="fill:#3A3A3A;" d="M130,430v20c0,5.523-4.477,10-10,10H10c-5.523,0-10-4.477-10-10v-20H130z"/>
<g id="XMLID_2764_">
	<path id="XMLID_1118_" style="fill:#B0CCBF;" d="M460,50v120v120c0,11.046-8.954,20-20,20H80v90h20c16.569,0,30,13.431,30,30l0,0
		v20c0,5.523-4.477,10-10,10H10c-5.523,0-10-4.477-10-10v-20l0,0c0-16.569,13.431-30,30-30h20V15c0-8.284,6.716-15,15-15
		s15,6.716,15,15v15h360C451.046,30,460,38.954,460,50z"/>
	<path id="XMLID_811_" style="fill:#C7E2D6;" d="M130,310H60V30h350L130,310z"/>
	<path id="XMLID_487_" style="fill:#AABAB2;" d="M89.827,310H50V30h39.827C89.827,30,89.827,310,89.827,310z"/>
	<path id="XMLID_795_" style="fill:#C6524A;" d="M345,170c0,13.807-11.193,25-25,25h-25v25c0,13.807-11.193,25-25,25
		s-25-11.193-25-25v-25h-25c-13.807,0-25-11.193-25-25s11.193-25,25-25h25v-25c0-13.807,11.193-25,25-25s25,11.193,25,25v25h25
		C333.807,145,345,156.193,345,170z"/>
	<path id="XMLID_498_" style="fill:#D3625F;" d="M245,195.383V195h-25c-13.807,0-25-11.193-25-25s11.193-25,25-25h25v-25
		c0-13.807,11.193-25,25-25s25,11.193,25,25v25h0.384L245,195.383z"/>
	<path id="XMLID_486_" style="fill:#515151;" d="M130,430L130,430v20c0,5.523-4.477,10-10,10H10c-5.523,0-10-4.477-10-10v-20l0,0
		c0-16.568,13.431-30,30-30h20V15c0-8.284,6.716-15,15-15s15,6.716,15,15v385h20C116.569,400,130,413.431,130,430z"/>
	<path id="XMLID_29_" style="fill:#3A3A3A;" d="M80,400H60V0.872C61.566,0.317,63.244,0,65,0c8.284,0,15,6.716,15,15V400z"/>
</g>
<g>
</g>
<g>
</g>
<g>
</g>
<g>
</g>
<g>
</g>
<g>
</g>
<g>
</g>
<g>
</g>
<g>
</g>
<g>
</g>
<g>
</g>
<g>
</g>
<g>
</g>
<g>
</g>
<g>
</g>
</svg>
