<?xml version="1.0" encoding="iso-8859-1"?>
<!-- Generator: Adobe Illustrator 19.0.0, SVG Export Plug-In . SVG Version: 6.00 Build 0)  -->
<svg version="1.1" id="Layer_1" xmlns="http://www.w3.org/2000/svg" xmlns:xlink="http://www.w3.org/1999/xlink" x="0px" y="0px"
	 viewBox="0 0 460 460" style="enable-background:new 0 0 460 460;" xml:space="preserve">
<g id="XMLID_3162_">
	<path id="XMLID_1622_" style="fill:#ADDFBA;" d="M460,60v340c0,33.137-26.863,60-60,60H230H60c-33.137,0-60-26.863-60-60V60
		C0,26.863,26.863,0,60,0h170h170C433.137,0,460,26.863,460,60z"/>
	<path id="XMLID_1623_" style="fill:#C1E5C9;" d="M230,0v460H60c-33.137,0-60-26.863-60-60V60C0,26.863,26.863,0,60,0H230z"/>
	<path id="XMLID_1614_" style="fill:#90BA9A;" d="M390,60v20v316.456h-30c0,0-2.324-0.551-3.544,0
		c2.27-5.02,3.544-10.588,3.544-16.456v-90v-80v-90c0-22.091-17.909-40-40-40c-5.868,0-11.435,1.274-16.456,3.544
		c0.334-0.739,0.276-1.465,0-2.179V60H390z"/>
	<path id="XMLID_2721_" style="fill:#74AA8B;" d="M400,0H230H60C26.863,0,0,26.863,0,60v340c0,33.137,26.863,60,60,60h170h170
		c33.137,0,60-26.863,60-60V60C460,26.863,433.137,0,400,0z M380,190v80v90c0,22.091-17.909,40-40,40l0,0c-22.091,0-40-17.909-40-40
		v-80c0-5.523-4.477-10-10-10h-60h-60c-5.523,0-10,4.477-10,10v80c0,22.091-17.909,40-40,40l0,0c-22.091,0-40-17.909-40-40v-90v-80
		v-90c0-22.091,17.909-40,40-40l0,0c22.091,0,40,17.909,40,40v80c0,5.523,4.477,10,10,10h60h60c5.523,0,10-4.477,10-10v-80
		c0-22.091,17.909-40,40-40l0,0c22.091,0,40,17.909,40,40V190z"/>
	<path id="XMLID_1845_" style="fill:#70A084;" d="M230,270h60c5.523,0,10,4.477,10,10v80c0,22.091,17.909,40,40,40l0,0
		c22.091,0,40-17.909,40-40v-90v-80v-90c0-22.091-17.909-40-40-40l0,0c-22.091,0-40,17.909-40,40v80c0,5.523-4.477,10-10,10h-60V0
		h170c33.137,0,60,26.863,60,60v340c0,33.137-26.863,60-60,60H230V270z"/>
</g>
<g>
</g>
<g>
</g>
<g>
</g>
<g>
</g>
<g>
</g>
<g>
</g>
<g>
</g>
<g>
</g>
<g>
</g>
<g>
</g>
<g>
</g>
<g>
</g>
<g>
</g>
<g>
</g>
<g>
</g>
</svg>
