<?xml version="1.0" encoding="iso-8859-1"?>
<!-- Generator: Adobe Illustrator 19.0.0, SVG Export Plug-In . SVG Version: 6.00 Build 0)  -->
<svg version="1.1" id="Layer_1" xmlns="http://www.w3.org/2000/svg" xmlns:xlink="http://www.w3.org/1999/xlink" x="0px" y="0px"
	 viewBox="0 0 460 460" style="enable-background:new 0 0 460 460;" xml:space="preserve">
<g id="XMLID_3281_">
	<path id="XMLID_2928_" style="fill:#E4F1F2;" d="M400,400h5V295v-15V169.271c23.905-13.834,40-39.665,40-69.271
		c0-44.183-35.817-80-80-80c-29.606,0-55.437,16.095-69.271,40H265h-95h-5c0-33.137-26.863-60-60-60S45,26.863,45,60v110
		c0,11.046,8.954,20,20,20h10v10c0,5.523,4.477,10,10,10h-3.333L50,270h-5c-16.569,0-30,13.432-30,30s13.431,30,30,30h60h60
		c11.102,0,20.789-6.036,25.977-15h123.047c4.391,7.588,12.007,13.072,20.977,14.577l0,0l0,0c0.781,0.131,1.572,0.232,2.372,0.301
		c0.083,0.007,0.168,0.012,0.252,0.019c0.785,0.062,1.576,0.103,2.376,0.103s1.591-0.041,2.376-0.103
		c0.084-0.007,0.168-0.012,0.252-0.019c0.8-0.069,1.591-0.17,2.372-0.301l0,0V390c0,5.523-4.477,10-10,10H230H60
		c-16.569,0-30,13.432-30,30s13.431,30,30,30h170h170c16.569,0,30-13.432,30-30S416.569,400,400,400z M145,190
		c11.046,0,20-8.954,20-20v-50h55h45h22.521c7.236,28.112,29.367,50.244,57.479,57.479v92.943l0,0
		c-0.781-0.131-1.572-0.232-2.372-0.301c-0.083-0.007-0.168-0.012-0.252-0.019C341.591,270.041,340.801,270,340,270
		s-1.591,0.041-2.376,0.103c-0.084,0.007-0.168,0.012-0.252,0.019c-0.8,0.069-1.591,0.17-2.372,0.301l0,0l0,0
		c-8.97,1.505-16.585,6.989-20.977,14.577H190.977c-5.188-8.964-14.874-15-25.977-15h-5l-31.667-60H125c5.523,0,10-4.477,10-10v-10
		H145z"/>
	<path id="XMLID_1609_" style="fill:#F5F7F7;" d="M130,270v20H80v-20l15-60v-20h20v20L130,270z"/>
	<path id="XMLID_2575_" style="fill:#898890;" d="M430,430c0,16.568-13.431,30-30,30H230H60c-16.569,0-30-13.432-30-30
		s13.431-30,30-30h170h105c5.523,0,10-4.477,10-10v-65c0-5.523-4.477-10-10-10H85v-30h250c5.523,0,10-4.477,10-10V150
		c0-16.568-13.431-30-30-30h-50H165V60h100h80c33.137,0,60,26.863,60,60v160v15v70.5V400v0.423C419.187,402.804,430,415.136,430,430
		z"/>
	<path id="XMLID_1847_" style="fill:#57565C;" d="M422.355,410c4.752,5.308,7.645,12.315,7.645,20c0,16.568-13.431,30-30,30H230H60
		c-16.569,0-30-13.432-30-30c0-7.685,2.893-14.692,7.645-20H422.355z"/>
	<path id="XMLID_1636_" style="fill:#37363A;" d="M422.355,450c-5.493,6.136-13.471,10-22.355,10H230H60
		c-8.884,0-16.862-3.864-22.355-10H422.355z"/>
	<path id="XMLID_1631_" style="fill:#48474C;" d="M195,300c0,16.568-13.431,30-30,30h-60H45c-16.569,0-30-13.432-30-30
		s13.431-30,30-30h60h60C181.569,270,195,283.432,195,300z"/>
	<path id="XMLID_1611_" style="fill:#57565C;" d="M195,300H15c0-16.568,13.431-30,30-30h60h60C181.569,270,195,283.432,195,300z"/>
	<path id="XMLID_2452_" style="fill:#76757F;" d="M220,120h-65V60h15L220,120z"/>
	<path id="XMLID_1887_" style="fill:#48474C;" d="M165,60v110c0,11.046-8.954,20-20,20h-10v10c0,5.523-4.477,10-10,10h-20H85
		c-5.523,0-10-4.477-10-10v-10H65c-11.046,0-20-8.954-20-20V60c0-33.137,26.863-60,60-60S165,26.863,165,60z"/>
	<path id="XMLID_2042_" style="fill:#57565C;" d="M105,0v190v20H85c-5.523,0-10-4.477-10-10v-10H65c-11.046,0-20-8.954-20-20V60
		C45,26.863,71.863,0,105,0L105,0z"/>
	<path id="XMLID_2386_" style="fill:#37363A;" d="M75,190h60v10c0,5.523-4.477,10-10,10h-20H85c-5.523,0-10-4.477-10-10V190z"/>
	<path id="XMLID_2451_" style="fill:#57565C;" d="M370,300c0,16.569-13.431,30-30,30s-30-13.431-30-30s13.431-30,30-30
		S370,283.431,370,300z"/>
	<path id="XMLID_2398_" style="fill:#48474C;" d="M335,270.423c1.627-0.273,3.296-0.423,5-0.423s3.373,0.15,5,0.423v59.155
		c-1.627,0.273-3.296,0.423-5,0.423s-3.373-0.15-5-0.423V270.423z"/>
	<path id="XMLID_2387_" style="fill:#76757F;" d="M445,100c0,44.183-35.817,80-80,80s-80-35.817-80-80s35.817-80,80-80
		S445,55.817,445,100z"/>
	<path id="XMLID_2388_" style="fill:#898890;" d="M435,100c0,38.66-31.34,70-70,70s-70-31.34-70-70s31.34-70,70-70
		S435,61.34,435,100z"/>
	<path id="XMLID_2396_" style="fill:#57565C;" d="M395,100c0,16.569-13.431,30-30,30s-30-13.431-30-30s13.431-30,30-30
		S395,83.431,395,100z"/>
	<path id="XMLID_2397_" style="fill:#48474C;" d="M360,70.423c1.627-0.273,3.296-0.423,5-0.423s3.373,0.15,5,0.423v59.155
		c-1.627,0.273-3.296,0.423-5,0.423s-3.373-0.15-5-0.423V70.423z"/>
</g>
<g>
</g>
<g>
</g>
<g>
</g>
<g>
</g>
<g>
</g>
<g>
</g>
<g>
</g>
<g>
</g>
<g>
</g>
<g>
</g>
<g>
</g>
<g>
</g>
<g>
</g>
<g>
</g>
<g>
</g>
</svg>
