<?xml version="1.0" encoding="iso-8859-1"?>
<!-- Generator: Adobe Illustrator 19.0.0, SVG Export Plug-In . SVG Version: 6.00 Build 0)  -->
<svg version="1.1" id="Layer_1" xmlns="http://www.w3.org/2000/svg" xmlns:xlink="http://www.w3.org/1999/xlink" x="0px" y="0px"
	 viewBox="0 0 460.001 460.001" style="enable-background:new 0 0 460.001 460.001;" xml:space="preserve">
<g id="XMLID_2612_">
	<path id="XMLID_473_" style="fill:#DCB84A;" d="M449.984,90H370V70V40l0,0c0-16.568-13.431-30-30-30H140c0-5.523-4.477-10-10-10
		h-25C92.905,0,82.818,8.589,80.501,20H55c-2.761,0-5,2.239-5,5s2.239,5,5,5h25.501C82.818,41.411,92.905,50,105,50h25
		c5.523,0,10-4.477,10-10h200v50H230H10.016c-7.912,0-12.69,8.752-8.412,15.408l50.573,78.668
		C70.577,212.698,102.268,230,136.295,230H200v50h-60c-16.569,0-30,13.431-30,30l0,0v20v10v10v10l0,0c0,16.568,13.431,30,30,30h60
		v20h-39.337c-17.563,0-33.838,9.215-42.875,24.275l-6.348,10.58c-3.999,6.665,0.802,15.145,8.575,15.145H230h109.985
		c7.773,0,12.574-8.48,8.575-15.145l-6.348-10.58C333.175,419.215,316.9,410,299.337,410H260v-20h60c6.491,0,12.807-2.105,18-6l8-6
		c7.688-5.766,3.61-18-6-18h-80v-50h80c16.569,0,30-13.431,30-30l0,0v-30v-31.375c15.161-7.92,28.282-19.708,37.823-34.55
		l50.573-78.668C462.674,98.752,457.895,90,449.984,90z M140,360v-50h60v50H140z M340,280h-35h-45v-50h63.705
		c5.509,0,10.955-0.461,16.295-1.342L340,280L340,280z"/>
	<path id="XMLID_31_" style="fill:#4C4221;" d="M370,40v70h-30V40H370z"/>
	<path id="XMLID_5_" style="fill:#4C4221;" d="M110,310h30v70c-16.569,0-30-13.431-30-30V310z"/>
	<path id="XMLID_7_" style="fill:#AA684B;" d="M90,30H55c-2.761,0-5-2.239-5-5l0,0c0-2.761,2.239-5,5-5h35V30z"/>
	<path id="XMLID_102_" style="fill:#4C4221;" d="M370,218.626V280h-30v-51.342C350.54,226.917,360.657,223.506,370,218.626z"/>
	<path id="XMLID_334_" style="fill:#EFD066;" d="M243.705,230H230h-80h-13.705c-34.026,0-65.718-17.302-84.118-45.924L1.605,105.408
		C-2.674,98.752,2.105,90,10.016,90H150h80h139.984c7.912,0,12.69,8.752,8.412,15.408l-50.573,78.668
		C309.423,212.698,277.732,230,243.705,230z"/>
	<path id="XMLID_243_" style="fill:#FFE07D;" d="M303.195,90l-24.584,59.363C266.104,179.564,230.342,200,190,200l0,0
		c-40.342,0-76.104-20.436-88.611-50.637L76.805,90H190H303.195z"/>
	<path id="XMLID_2_" style="fill:#FFEDA1;" d="M196.05,96.724C187.831,116.57,164.33,130,137.82,130l0,0
		c-26.51,0-50.011-13.43-58.23-33.276L76.805,90H188.62h10.215L196.05,96.724z"/>
	<path id="XMLID_103_" style="fill:#8C7A3C;" d="M370,250v30l0,0c0,16.568-13.431,30-30,30h-80v-30h80
		C356.569,280,370,266.569,370,250z"/>
	<path id="XMLID_107_" style="fill:#6D5D30;" d="M260,310L260,310v-30h45L260,310z"/>
	<path id="XMLID_15_" style="fill:#734A1E;" d="M240,380h20v30h-20V380z"/>
	<path id="XMLID_4_" style="fill:#AD7F29;" d="M230,270l30-20v130h-30V270z"/>
	<path id="XMLID_14_" style="fill:#AD7F29;" d="M220,380v30h-20v-30H220z"/>
	<path id="XMLID_26_" style="fill:#8C7A3C;" d="M370,40L370,40v30c0-16.568-13.431-30-30-30H140c0,5.523-4.477,10-10,10h-25
		c-13.807,0-25-11.193-25-25l0,0c0-13.807,11.193-25,25-25h25c5.523,0,10,4.477,10,10h200C356.569,10,370,23.431,370,40z"/>
	<path id="XMLID_30_" style="fill:#998542;" d="M140,40L140,40V10h45L140,40z"/>
	<path id="XMLID_352_" style="fill:#AD7F29;" d="M220,276.667L200,290v-60h20V276.667z"/>
	<path id="XMLID_441_" style="fill:#734A1E;" d="M260,230v20l-20,13.333l0,0V230H260z"/>
	<path id="XMLID_333_" style="fill:#EFD066;" d="M220,390V276.667L230,270l10-6.667V390H220z"/>
	<path id="XMLID_9_" style="fill:#EFD066;" d="M310,411.165C309.387,427.193,296.207,440,280.029,440H114.383l3.435-5.725
		C126.854,419.215,143.13,410,160.693,410H190h30h20h40h19.366C302.985,410,306.543,410.412,310,411.165z"/>
	<path id="XMLID_351_" style="fill:#8C7A3C;" d="M346,378l-8,6c-5.193,3.895-11.509,6-18,6H200h-60c-16.568,0-30-13.431-30-30l0,0
		v-20v-10v-20l0,0c0-16.568,13.431-30,30-30h60v30h-60c-14.864,0-27.196,10.813-29.577,25c2.381,14.187,14.713,25,29.577,25h60h140
		C349.61,360,353.688,372.234,346,378z"/>
</g>
<g>
</g>
<g>
</g>
<g>
</g>
<g>
</g>
<g>
</g>
<g>
</g>
<g>
</g>
<g>
</g>
<g>
</g>
<g>
</g>
<g>
</g>
<g>
</g>
<g>
</g>
<g>
</g>
<g>
</g>
</svg>
