<?xml version="1.0" encoding="iso-8859-1"?>
<!-- Generator: Adobe Illustrator 19.0.0, SVG Export Plug-In . SVG Version: 6.00 Build 0)  -->
<svg version="1.1" id="Layer_1" xmlns="http://www.w3.org/2000/svg" xmlns:xlink="http://www.w3.org/1999/xlink" x="0px" y="0px"
	 viewBox="0 0 460 460" style="enable-background:new 0 0 460 460;" xml:space="preserve">
<g id="XMLID_2664_">
	<path id="XMLID_823_" style="fill:#C7E2D6;" d="M460,64.672V210c0,5.523-4.477,10-10,10h-50h-20c-5.523,0-10,4.477-10,10v200v20
		c0,5.523-4.477,10-10,10H230H100c-5.523,0-10-4.477-10-10v-20V230c0-5.523-4.477-10-10-10H60H10c-5.523,0-10-4.477-10-10V64.672
		c0-9.258,4.274-17.997,11.582-23.681L58.869,4.213C62.38,1.482,66.7,0,71.148,0H130h10.789H319.21H320h68.852
		c4.448,0,8.768,1.482,12.279,4.213l47.287,36.779C455.726,46.676,460,55.415,460,64.672z"/>
	<path id="XMLID_889_" style="fill:#DAEDE3;" d="M10.998,41.474L26.522,220H10c-5.523,0-10-4.477-10-10V64.672
		C0,55.668,4.052,47.163,10.998,41.474z"/>
	<path id="XMLID_884_" style="fill:#DAEDE3;" d="M90,140c5.682,0,10.444,4.295,11.029,9.947L130,430H90V230c0-5.523-4.477-10-10-10
		v-70C80,144.477,84.477,140,90,140z"/>
	<path id="XMLID_886_" style="fill:#9AB7A9;" d="M90,140v90c0-5.523-4.477-10-10-10v-70C80,144.477,84.477,140,90,140z"/>
	<path id="XMLID_891_" style="fill:#BFDDD0;" d="M320,6.38L320,6.38c0-2.202-0.281-4.336-0.789-6.38h69.642
		c4.448,0,8.768,1.482,12.279,4.213l47.287,36.779C455.726,46.676,460,55.415,460,64.672V210c0,5.523-4.477,10-10,10h-50h-20
		c-5.523,0-10,4.477-10,10v200c0,5.523-4.477,10-10,10H230V90.154l83.26-69.383C317.531,17.212,320,11.939,320,6.38z"/>
	<path id="XMLID_870_" style="fill:#B0CCBF;" d="M460,64.672V210c0,5.523-4.477,10-10,10h-16.522l15.524-178.526
		C455.948,47.163,460,55.668,460,64.672z"/>
	<path id="XMLID_827_" style="fill:#B0CCBF;" d="M380,150v70c-5.523,0-10,4.477-10,10v200h-40l28.971-280.053
		C359.556,144.295,364.318,140,370,140C375.523,140,380,144.477,380,150z"/>
	<path id="XMLID_829_" style="fill:#9AB7A9;" d="M380,150v70c-5.523,0-10,4.477-10,10v-90C375.523,140,380,144.477,380,150z"/>
	<path id="XMLID_824_" style="fill:#DAEDE3;" d="M330,140v10c0,5.523-4.477,10-10,10h-50c-5.523,0-10-4.477-10-10v-10
		c0-5.523,4.477-10,10-10h50C325.523,130,330,134.477,330,140z"/>
	<path id="XMLID_822_" style="fill:#9AB7A9;" d="M350,0v5.963c0,8.895-3.948,17.332-10.777,23.032l-96.407,80.463
		c-7.421,6.194-18.21,6.194-25.631,0l-96.407-80.463C113.948,23.295,110,14.858,110,5.963V0H350z"/>
	<path id="XMLID_871_" style="fill:#9AB7A9;" d="M370,430v20c0,5.523-4.477,10-10,10H230H100c-5.523,0-10-4.477-10-10v-20h140H370z"
		/>
	<path id="XMLID_820_" style="fill:#DAEDE3;" d="M140,6.379c0-2.201,0.281-4.335,0.79-6.379h178.42
		c0.508,2.044,0.79,4.178,0.79,6.379l0,0c0,5.039-2.043,9.831-5.604,13.336L230,90.154l-84.396-70.438
		C142.043,16.21,140,11.419,140,6.379L140,6.379z"/>
</g>
<g>
</g>
<g>
</g>
<g>
</g>
<g>
</g>
<g>
</g>
<g>
</g>
<g>
</g>
<g>
</g>
<g>
</g>
<g>
</g>
<g>
</g>
<g>
</g>
<g>
</g>
<g>
</g>
<g>
</g>
</svg>
