<?xml version="1.0" encoding="iso-8859-1"?>
<!-- Generator: Adobe Illustrator 19.0.0, SVG Export Plug-In . SVG Version: 6.00 Build 0)  -->
<svg version="1.1" id="Layer_1" xmlns="http://www.w3.org/2000/svg" xmlns:xlink="http://www.w3.org/1999/xlink" x="0px" y="0px"
	 viewBox="0 0 460 460" style="enable-background:new 0 0 460 460;" xml:space="preserve">
<g id="XMLID_2939_">
	<path id="XMLID_1894_" style="fill:#94AEAF;" d="M367.886,57.365L367.886,57.365C329.81,19.122,279.905,0,230,0l0,0l0,0l0,0l0,0
		c-49.905,0-99.81,19.122-137.886,57.365l0,0c-76.152,76.487-76.152,200.496,0,276.982l116.064,116.574
		C214.204,456.974,222.102,460,230,460l0,0l0,0l0,0l0,0c7.898,0,15.796-3.026,21.822-9.079l116.064-116.574
		C444.038,257.861,444.038,133.852,367.886,57.365z M230,300c-60.751,0-110-49.249-110-110S169.249,80,230,80s110,49.249,110,110
		S290.751,300,230,300z"/>
	<path id="XMLID_1885_" style="fill:#749193;" d="M367.886,334.348L251.822,450.921C245.796,456.974,237.898,460,230,460V300
		c60.751,0,110-49.249,110-110S290.751,80,230,80V0c49.905,0,99.81,19.122,137.886,57.365l0,0
		C444.038,133.852,444.038,257.861,367.886,334.348z"/>
	<path id="XMLID_1884_" style="fill:#C6524A;" d="M300,190L300,190c0,15.034-12.188,27.222-27.222,27.222h-15.556v15.556
		C257.222,247.812,245.035,260,230,260l0,0l0,0c-15.034,0-27.222-12.188-27.222-27.222v-15.556h-15.556
		C172.188,217.222,160,205.034,160,190l0,0c0-15.035,12.188-27.222,27.222-27.222h15.556v-15.556
		C202.778,132.188,214.966,120,230,120l0,0l0,0c15.034,0,27.222,12.188,27.222,27.222v15.556h15.556
		C287.812,162.778,300,174.965,300,190z"/>
	<path id="XMLID_1652_" style="fill:#D3625F;" d="M160,190c0-15.035,12.188-27.222,27.222-27.222h15.556v-15.556
		C202.778,132.188,214.966,120,230,120l0,0l0,0c15.034,0,27.222,12.188,27.222,27.222v15.556h0.519l-54.963,54.963v-0.519h-15.556
		C172.188,217.222,160,205.034,160,190z"/>
</g>
<g>
</g>
<g>
</g>
<g>
</g>
<g>
</g>
<g>
</g>
<g>
</g>
<g>
</g>
<g>
</g>
<g>
</g>
<g>
</g>
<g>
</g>
<g>
</g>
<g>
</g>
<g>
</g>
<g>
</g>
</svg>
