<?xml version="1.0" encoding="iso-8859-1"?>
<!-- Generator: Adobe Illustrator 19.0.0, SVG Export Plug-In . SVG Version: 6.00 Build 0)  -->
<svg version="1.1" id="Layer_1" xmlns="http://www.w3.org/2000/svg" xmlns:xlink="http://www.w3.org/1999/xlink" x="0px" y="0px"
	 viewBox="0 0 460 460" style="enable-background:new 0 0 460 460;" xml:space="preserve">
<g id="XMLID_3389_">
	<path id="XMLID_439_" style="fill:#728193;" d="M30,300v80h301.759c6.774-28.664,32.507-50,63.241-50c35.898,0,65,29.102,65,65
		s-29.102,65-65,65c-30.733,0-56.467-21.336-63.241-50H60H30c-16.569,0-30-13.432-30-30v-80c0-16.568,13.431-30,30-30h30h160v-80H30
		c-16.569,0-30-13.432-30-30V40c0-16.568,13.431-30,30-30h30h72.698C136.157,4.028,142.602,0,150,0h30c11.046,0,20,8.954,20,20v10
		c0,11.046-8.954,20-20,20h-30c-7.398,0-13.843-4.028-17.302-10H30v120h400V40H327.302c-3.459,5.972-9.904,10-17.302,10h-30
		c-11.046,0-20-8.954-20-20V20c0-11.046,8.954-20,20-20h30c7.398,0,13.843,4.028,17.302,10H400h30c16.569,0,30,13.432,30,30v120
		c0,16.568-13.431,30-30,30H250v80c0,16.568-13.431,30-30,30h-30H30z"/>
	<path id="XMLID_1168_" style="fill:#9DA5E0;" d="M330,395c0-35.898,29.102-65,65-65s65,29.102,65,65s-29.102,65-65,65
		S330,430.898,330,395z"/>
	<path id="XMLID_1069_" style="fill:#728193;" d="M352.5,395c0-23.472,19.028-42.5,42.5-42.5s42.5,19.028,42.5,42.5
		s-19.028,42.5-42.5,42.5S352.5,418.472,352.5,395z"/>
	<path id="XMLID_1064_" style="fill:#5A636B;" d="M372.5,395c0-12.426,10.074-22.5,22.5-22.5s22.5,10.074,22.5,22.5
		s-10.074,22.5-22.5,22.5S372.5,407.426,372.5,395z"/>
	<path id="XMLID_454_" style="fill:#9DA5E0;" d="M30,300v80c0,16.568,13.431,30,30,30H30c-16.569,0-30-13.432-30-30v-80
		c0-16.568,13.431-30,30-30h30C43.431,270,30,283.432,30,300z"/>
	<path id="XMLID_524_" style="fill:#9DA5E0;" d="M460,40v120c0,16.568-13.431,30-30,30H250v80c0,16.568-13.431,30-30,30h-30
		c16.569,0,30-13.432,30-30v-80H30c-16.569,0-30-13.432-30-30V40c0-16.568,13.431-30,30-30h30c-16.569,0-30,13.432-30,30v120h400V40
		c0-16.568-13.431-30-30-30h30C446.569,10,460,23.432,460,40z"/>
	<path id="XMLID_3253_" style="fill:#5A636B;" d="M330,20v10c0,11.046-8.954,20-20,20h-30c-11.046,0-20-8.954-20-20V20
		c0-11.046,8.954-20,20-20h30C321.046,0,330,8.954,330,20z"/>
	<path id="XMLID_2295_" style="fill:#5A636B;" d="M200,20v10c0,11.046-8.954,20-20,20h-30c-11.046,0-20-8.954-20-20V20
		c0-11.046,8.954-20,20-20h30C191.046,0,200,8.954,200,20z"/>
	<path id="XMLID_2467_" style="fill:#728193;" d="M200,20c0,5.523-4.477,10-10,10h-20c-11.046,0-20-8.954-20-20
		c0-5.523,4.477-10,10-10h20C191.046,0,200,8.954,200,20z"/>
	<path id="XMLID_2468_" style="fill:#728193;" d="M310,10c0,11.046-8.954,20-20,20h-20c-5.523,0-10-4.477-10-10
		c0-11.046,8.954-20,20-20h20C305.523,0,310,4.477,310,10z"/>
</g>
<g>
</g>
<g>
</g>
<g>
</g>
<g>
</g>
<g>
</g>
<g>
</g>
<g>
</g>
<g>
</g>
<g>
</g>
<g>
</g>
<g>
</g>
<g>
</g>
<g>
</g>
<g>
</g>
<g>
</g>
</svg>
