<?xml version="1.0" encoding="iso-8859-1"?>
<!-- Generator: Adobe Illustrator 19.0.0, SVG Export Plug-In . SVG Version: 6.00 Build 0)  -->
<svg version="1.1" id="Layer_1" xmlns="http://www.w3.org/2000/svg" xmlns:xlink="http://www.w3.org/1999/xlink" x="0px" y="0px"
	 viewBox="0 0 460.001 460.001" style="enable-background:new 0 0 460.001 460.001;" xml:space="preserve">
<g id="XMLID_2852_">
	<path id="XMLID_1385_" style="fill:#975549;" d="M415,245.001L415,245.001c0,85.605-69.396,155-155,155h-95h-30
		c-16.569,0-30,13.431-30,30l0,0c0,16.569-13.431,30-30,30l0,0c-16.569,0-30-13.431-30-30v-50c0-33.137,26.863-60,60-60l0,0
		c16.569,0,30-13.431,30-30v-200v-60c0-16.849,13.89-30.453,30.843-29.989C182.184,0.461,195,14.279,195,30.625v29.376
		c0,16.569,13.431,30,30,30h35C345.604,90.001,415,159.397,415,245.001z"/>
	<path id="XMLID_1392_" style="fill:#7C463E;" d="M339.999,240.001v137.781c-23.354,14.102-50.727,22.219-79.999,22.219h-95h-30
		c-16.569,0-30,13.431-30,30s-13.431,30-30,30s-30-13.431-30-30v-50c0-33.137,26.863-60,60-60c16.569,0,30-13.431,30-30h-0.001v-144
		v-56V50.033V30.001c0-16.849,13.889-30.453,30.843-29.989c1.184,0.032,2.347,0.143,3.49,0.312v100.111c0,11.046,8.954,20,20,20
		h12.229h16.698c66.413,0,120.351,53.373,121.282,119.565h0.458V240.001z"/>
	<path id="XMLID_1395_" style="fill:#633532;" d="M415,245.001L415,245.001c0,85.604-69.396,155-155,155h-95h-30
		c-16.569,0-30,13.431-30,30s-13.431,30-30,30s-30-13.431-30-30v-29.003c4.238,5.402,10.787,8.903,18.162,9.001
		c13.062,0.172,23.519-10.931,23.8-23.991c0.274-12.729,10.678-22.964,23.473-22.964h23.478h84.348
		c66.995,0,121.304-54.31,121.304-121.304l0,0c0-5.115-0.32-10.155-0.935-15.104c34.96-12.19,50.526-55.041,31.967-86.635h3.386
		C399.438,167.614,415,204.484,415,245.001z"/>
	<path id="XMLID_1401_" style="fill:#892828;" d="M190,300.001v-120c0-5.523,4.477-10,10-10h10c38.66,0,70,31.34,70,70l0,0
		c0,38.66-31.34,70-70,70h-10C194.477,310.001,190,305.524,190,300.001z"/>
	<path id="XMLID_1404_" style="fill:#A83331;" d="M280,240.001L280,240.001L280,240.001c0,3.397-0.255,6.733-0.723,10H190v-10v-10
		h89.277C279.745,233.268,280,236.604,280,240.001z"/>
	<path id="XMLID_1407_" style="fill:#D87A72;" d="M280,240.001L280,240.001h-90v-60c0-5.523,4.477-10,10-10h10
		C248.66,170.001,280,201.341,280,240.001z"/>
	<path id="XMLID_1409_" style="fill:#E2918D;" d="M200,170.001h10c23.783,0,44.782,11.871,57.432,30H190v-20
		C190,174.478,194.477,170.001,200,170.001z"/>
</g>
<g>
</g>
<g>
</g>
<g>
</g>
<g>
</g>
<g>
</g>
<g>
</g>
<g>
</g>
<g>
</g>
<g>
</g>
<g>
</g>
<g>
</g>
<g>
</g>
<g>
</g>
<g>
</g>
<g>
</g>
</svg>
