<?xml version="1.0" encoding="iso-8859-1"?>
<!-- Generator: Adobe Illustrator 19.0.0, SVG Export Plug-In . SVG Version: 6.00 Build 0)  -->
<svg version="1.1" id="Layer_1" xmlns="http://www.w3.org/2000/svg" xmlns:xlink="http://www.w3.org/1999/xlink" x="0px" y="0px"
	 viewBox="0 0 460 460" style="enable-background:new 0 0 460 460;" xml:space="preserve">
<g id="XMLID_2689_">
	<path id="XMLID_940_" style="fill:#A0A0A0;" d="M370,390v40c0,16.569-13.431,30-30,30h-20c-16.569,0-30-13.431-30-30
		c0,16.569-13.431,30-30,30h-20c-16.569,0-30-13.431-30-30v-40c0-16.569,13.431-30,30-30h30V200l9.56-195.243
		c0.194-3.876,4.538-6.063,7.767-3.911L310,20v180v160h30C356.569,360,370,373.431,370,390z"/>
	<path id="XMLID_941_" style="fill:#8C8C8C;" d="M282.355,450c-5.493,6.136-13.471,10-22.355,10h-20
		c-8.884,0-16.862-3.864-22.355-10H282.355z"/>
	<path id="XMLID_942_" style="fill:#777777;" d="M250,430h-10c-5.523,0-10-4.477-10-10v-20c0-5.523,4.477-10,10-10h10
		c-5.523,0-10,4.477-10,10v20C240,425.523,244.477,430,250,430z"/>
	<path id="XMLID_943_" style="fill:#B7B7B7;" d="M270,400v20c0,5.523-4.477,10-10,10h-10c5.523,0,10-4.477,10-10v-30
		C265.523,390,270,394.477,270,400z"/>
	<path id="XMLID_944_" style="fill:#B7B7B7;" d="M240,360h30l20-20l20,20h30c8.884,0,16.862,3.864,22.355,10H290h-72.355
		C223.138,363.864,231.116,360,240,360z"/>
	<path id="XMLID_945_" style="fill:#777777;" d="M370,390v40c0,16.569-13.431,30-30,30h-20c-16.569,0-30-13.431-30-30v-70v-90
		c0-11.046-8.954-20-20-20v-50l1.514-10H310v10v160h30C356.569,360,370,373.431,370,390z"/>
	<path id="XMLID_946_" style="fill:#C4C4C4;" d="M310,20v180h-40l28.698-189.548L310,20z"/>
	<path id="XMLID_964_" style="fill:#666666;" d="M362.355,450c-5.493,6.136-13.471,10-22.355,10h-20
		c-8.884,0-16.862-3.864-22.355-10H362.355z"/>
	<path id="XMLID_968_" style="fill:#B7B7B7;" d="M340,420v-20c0-5.523-4.477-10-10-10h10c5.523,0,10,4.477,10,10v20
		c0,5.523-4.477,10-10,10h-10C335.523,430,340,425.523,340,420z"/>
	<path id="XMLID_970_" style="fill:#666666;" d="M320,390v30c0,5.523,4.477,10,10,10h-10c-5.523,0-10-4.477-10-10v-20
		C310,394.477,314.477,390,320,390z"/>
	<path id="XMLID_980_" style="fill:#666666;" d="M310,360h30c8.884,0,16.862,3.864,22.355,10H290v-10v-20L310,360z"/>
	<path id="XMLID_6_" style="fill:#5B5B5B;" d="M300,220c0,5.523-4.477,10-10,10s-10-4.477-10-10s4.477-10,10-10S300,214.477,300,220
		z"/>
	<path id="XMLID_28_" style="fill:#939393;" d="M290,210v20c-5.523,0-10-4.477-10-10S284.477,210,290,210z"/>
	<path id="XMLID_868_" style="fill:#C4C4C4;" d="M140,200v10c5.523,0,10,4.477,10,10v230c0,5.523-4.477,10-10,10h-10
		c-5.523,0-10-4.477-10-10V220c0-5.523,4.477-10,10-10v-10h-30c-5.523,0-10-4.477-10-10v-53.626
		c0-45.242,13.392-89.471,38.487-127.114l3.192-4.788C137.168-3.761,150,0.124,150,10.018V190C150,195.523,145.523,200,140,200z"/>
	<path id="XMLID_938_" style="fill:#777777;" d="M150,220v230c0,5.523-4.477,10-10,10h-10c-5.523,0-10-4.477-10-10V220
		c0-5.523,4.477-10,10-10v-10h10v10C145.523,210,150,214.477,150,220z"/>
	<path id="XMLID_936_" style="fill:#5B5B5B;" d="M140,235c0,2.761-2.239,5-5,5s-5-2.239-5-5s2.239-5,5-5S140,232.239,140,235z"/>
	<path id="XMLID_935_" style="fill:#5B5B5B;" d="M140,190v10l-10,10v-10v-10H140z"/>
	<path id="XMLID_109_" style="fill:#A0A0A0;" d="M140,200h-10c-5.523,0-10-4.477-10-10v-53.626c0-32.774,7.031-65.014,20.446-94.606
		c2.218-4.893,9.554-3.293,9.554,2.08V190C150,195.523,145.523,200,140,200z"/>
</g>
<g>
</g>
<g>
</g>
<g>
</g>
<g>
</g>
<g>
</g>
<g>
</g>
<g>
</g>
<g>
</g>
<g>
</g>
<g>
</g>
<g>
</g>
<g>
</g>
<g>
</g>
<g>
</g>
<g>
</g>
</svg>
