<?xml version="1.0" encoding="iso-8859-1"?>
<!-- Generator: Adobe Illustrator 19.0.0, SVG Export Plug-In . SVG Version: 6.00 Build 0)  -->
<svg version="1.1" id="Layer_1" xmlns="http://www.w3.org/2000/svg" xmlns:xlink="http://www.w3.org/1999/xlink" x="0px" y="0px"
	 viewBox="0 0 459.999 459.999" style="enable-background:new 0 0 459.999 459.999;" xml:space="preserve">
<g id="XMLID_3296_">
	<path id="XMLID_2814_" style="fill:#E7EFF2;" d="M451.215,121.889c11.712,11.712,11.712,30.702,0,42.415s-30.702,11.712-42.415,0
		l-7.069-7.069l-21.207,21.207l7.069,7.069c11.712,11.712,11.713,30.702,0,42.415l0,0c-11.713,11.712-30.702,11.712-42.415,0
		L168.462,404.641c-23.431,23.431-61.42,23.431-84.852,0l-14.127-14.127l-14.127-14.127c-23.431-23.431-23.431-61.42,0-84.851
		L232.073,114.82l0,0c-11.712-11.712-11.713-30.702,0-42.415l0,0c11.712-11.712,30.702-11.712,42.415,0l7.069,7.069l21.207-21.207
		l-7.069-7.069c-11.712-11.712-11.712-30.702,0-42.414s30.702-11.713,42.414,0l56.553,56.553L451.215,121.889z"/>
	<path id="XMLID_2754_" style="fill:#D0D9DD;" d="M343.123,229.981l-174.66,174.66c-23.431,23.431-61.42,23.431-84.852,0
		l-14.127-14.127L286.57,173.428L343.123,229.981z"/>
	<path id="XMLID_2845_" style="fill:#C3CDD1;" d="M451.215,121.889c11.712,11.712,11.713,30.702,0,42.415
		c-11.712,11.712-30.702,11.712-42.415,0l-7.069-7.069l-21.207,21.207l-49.483-49.483l-49.484-49.484l21.207-21.207l-7.069-7.069
		c-11.712-11.712-11.712-30.702,0-42.414s30.702-11.713,42.414,0l56.553,56.553L451.215,121.889z"/>
	<path id="XMLID_2847_" style="fill:#B4BDBF;" d="M295.692,65.338l7.069-7.069l98.98,98.98l-7.069,7.069L295.692,65.338z"/>
	<path id="XMLID_2846_" style="fill:#9DA7A8;" d="M345.178,114.82l7.069-7.069l49.484,49.483l-7.069,7.069L345.178,114.82z"/>
	<path id="XMLID_2848_" style="fill:#D3DADD;" d="M451.215,164.304L295.695,8.784c11.712-11.712,30.702-11.712,42.414,0
		l56.553,56.553l56.553,56.553C462.927,133.602,462.927,152.591,451.215,164.304z"/>
	<path id="XMLID_2759_" style="fill:#B8A1C6;" d="M161.39,298.624l21.914,21.914c3.514,3.514,3.197,9.527-0.707,13.431
		l-32.989,32.989c-10.259,10.259-24.884,13.08-36.355,8.079l-79.106,79.106c-7.808,7.808-20.468,7.808-28.276,0l-0.015-0.015
		c-7.808-7.809-7.808-20.468,0-28.277l79.106-79.105c-5.001-11.471-2.18-26.097,8.079-36.355l32.989-32.989
		c3.904-3.904,9.918-4.221,13.431-0.707l21.914,21.914l-2.09,2.09l0.015,0.015L161.39,298.624z"/>
	<path id="XMLID_2758_" style="fill:#9F8BAF;" d="M182.589,333.962L149.6,366.951c-10.259,10.259-24.884,13.08-36.356,8.079
		l-79.108,79.108c-7.807,7.807-20.465,7.807-28.273,0l-0.002-0.002L111.899,348.1l0,0l49.484-49.484l21.914,21.914
		C186.81,324.044,186.494,330.057,182.589,333.962z"/>
	<path id="XMLID_2753_" style="fill:#F8FDFF;" d="M302.764,100.682l14.138,14.138l-42.415,42.414l-14.138,14.138L55.346,376.376
		c-4.959-4.959-8.856-10.574-11.715-16.561l202.58-202.58l14.138-14.138L302.764,100.682z"/>
	<path id="XMLID_2749_" style="fill:#DBCAE5;" d="M93.048,310.398l32.989-32.989c3.904-3.904,9.918-4.221,13.431-0.707l7.776,7.776
		l-62.276,62.276C79.968,335.282,82.789,320.657,93.048,310.398z"/>
	<path id="XMLID_2732_" style="fill:#9A989B;" d="M300.682,187.593c3.904,3.904,3.904,10.234,0,14.138s-10.234,3.904-14.138,0
		l-14.138-14.138l0,0l-14.138-14.138c-3.904-3.904-3.904-10.234,0-14.138l0,0c3.904-3.904,10.234-3.904,14.138,0l14.138,14.138l0,0
		L300.682,187.593z"/>
	<path id="XMLID_2731_" style="fill:#9A989B;" d="M244.129,215.869l7.069,7.069c3.904,3.904,3.904,10.234,0,14.138l0,0
		c-3.904,3.904-10.234,3.904-14.138,0l-7.069-7.069l0,0l-7.069-7.069c-3.904-3.904-3.904-10.234,0-14.138l0,0
		c3.904-3.904,10.234-3.904,14.138,0L244.129,215.869L244.129,215.869z"/>
	<path id="XMLID_2059_" style="fill:#B0ADB2;" d="M222.935,208.787L222.935,208.787c3.904-3.904,10.234-3.904,14.138,0l7.069,7.069
		l-14.138,14.138l-7.069-7.069C219.031,219.021,219.031,212.691,222.935,208.787z"/>
	<path id="XMLID_2730_" style="fill:#9A989B;" d="M215.853,272.422c3.904,3.904,3.904,10.234,0,14.138s-10.234,3.904-14.138,0
		l-14.138-14.138l0,0l-14.138-14.138c-3.904-3.904-3.904-10.234,0-14.138s10.234-3.904,14.138,0l14.138,14.138l0,0L215.853,272.422z
		"/>
	<path id="XMLID_2058_" style="fill:#B0ADB2;" d="M173.438,244.146L173.438,244.146c3.904-3.904,10.234-3.904,14.138,0
		l14.138,14.138l-14.138,14.138l-14.138-14.138C169.534,254.38,169.534,248.05,173.438,244.146z"/>
	<path id="XMLID_1645_" style="fill:#B0ADB2;" d="M258.29,159.294L258.29,159.294c3.904-3.904,10.234-3.904,14.138,0l14.138,14.138
		l-14.138,14.138l-14.138-14.138C254.386,169.528,254.386,163.198,258.29,159.294z"/>
	<path id="XMLID_2811_" style="fill:#CAC6CC;" d="M187.576,244.146l-14.138,14.138c-3.904-3.904-3.904-10.234,0-14.138
		C177.342,240.241,183.672,240.241,187.576,244.146z"/>
	<path id="XMLID_2812_" style="fill:#CAC6CC;" d="M272.406,159.317l-14.138,14.138c-3.904-3.904-3.904-10.234,0-14.138
		C262.171,155.413,268.501,155.413,272.406,159.317z"/>
</g>
<g>
</g>
<g>
</g>
<g>
</g>
<g>
</g>
<g>
</g>
<g>
</g>
<g>
</g>
<g>
</g>
<g>
</g>
<g>
</g>
<g>
</g>
<g>
</g>
<g>
</g>
<g>
</g>
<g>
</g>
</svg>
