<?xml version="1.0" encoding="iso-8859-1"?>
<!-- Generator: Adobe Illustrator 19.0.0, SVG Export Plug-In . SVG Version: 6.00 Build 0)  -->
<svg version="1.1" id="Layer_1" xmlns="http://www.w3.org/2000/svg" xmlns:xlink="http://www.w3.org/1999/xlink" x="0px" y="0px"
	 viewBox="0 0 460.001 460.001" style="enable-background:new 0 0 460.001 460.001;" xml:space="preserve">
<g id="XMLID_3010_">
	<path id="XMLID_1997_" style="fill:#D3DADD;" d="M435.517,24.483L435.517,24.483c32.644,32.644,32.644,85.569,0,118.213
		L241.312,336.902c-16.101,16.1-37.135,24.243-58.237,24.462l-84.18,84.18c-19.276,19.276-50.529,19.276-69.804,0l-7.317-7.316
		l-7.316-7.317c-19.276-19.276-19.276-50.529,0-69.804l84.18-84.18c0.218-21.102,8.361-42.136,24.462-58.237L317.305,24.483
		C349.948-8.161,402.874-8.161,435.517,24.483z"/>
	<path id="XMLID_1988_" style="fill:#BEC8CC;" d="M435.517,24.483L435.517,24.483c32.644,32.644,32.644,85.569,0,118.213
		L241.312,336.902c-16.101,16.1-37.135,24.243-58.237,24.462l-84.18,84.18c-19.276,19.276-50.529,19.276-69.804,0l-7.317-7.316
		l101.325-101.325l0,0L435.517,24.483z"/>
	<path id="XMLID_1944_" style="fill:#D0D9DD;" d="M254.105,324.108l-76.493-159.932l56.215-56.215l76.493,159.932L254.105,324.108z"
		/>
	<path id="XMLID_1189_" style="fill:#E7EFF2;" d="M215.859,244.142l-38.247-79.966l56.215-56.215l38.247,79.966L215.859,244.142z"/>
	<path id="XMLID_1187_" style="fill:#E7EFF2;" d="M254.105,324.108l-76.493-159.932l9.677-9.677l76.493,159.932L254.105,324.108z"/>
	<path id="XMLID_1186_" style="fill:#F8FDFF;" d="M215.859,244.142l-38.247-79.966l9.677-9.677l38.247,79.966L215.859,244.142z"/>
	<path id="XMLID_1185_" style="fill:#D24131;" d="M410.186,117.364c-12.5,12.499-30.2,16.609-46.133,12.358l-286.1,286.1
		c-7.71,7.71-20.212,7.71-27.922,0l-2.927-2.927l-2.927-2.927c-7.71-7.71-7.71-20.211,0-27.922l286.1-286.1
		c-4.252-15.933-0.142-33.634,12.357-46.133c18.653-18.654,48.897-18.654,67.55,0C428.839,68.468,428.839,98.711,410.186,117.364z"
		/>
	<path id="XMLID_1184_" style="fill:#EB6F46;" d="M410.186,49.814l-25.331,25.331l-42.219,42.219L47.105,412.896l-2.926-2.926
		c-7.711-7.711-7.71-20.211,0-27.922l286.1-286.1c-4.252-15.933-0.142-33.634,12.358-46.133
		C361.289,31.161,391.533,31.161,410.186,49.814z"/>
	<path id="XMLID_1183_" style="fill:#E0483D;" d="M261.145,165.08L283,210.775l-56.215,56.215l-21.855-45.695L261.145,165.08z"/>
	<path id="XMLID_1180_" style="fill:#F27A5A;" d="M261.145,165.08l10.928,22.848l-56.215,56.215l-10.928-22.848L261.145,165.08z"/>
	<path id="XMLID_1179_" style="fill:#E15639;" d="M226.786,266.99l-21.855-45.695l9.677-9.677l21.855,45.695L226.786,266.99z"/>
	<path id="XMLID_533_" style="fill:#F29668;" d="M215.859,244.142l-10.928-22.848l9.677-9.677l10.928,22.848L215.859,244.142z"/>
</g>
<g>
</g>
<g>
</g>
<g>
</g>
<g>
</g>
<g>
</g>
<g>
</g>
<g>
</g>
<g>
</g>
<g>
</g>
<g>
</g>
<g>
</g>
<g>
</g>
<g>
</g>
<g>
</g>
<g>
</g>
</svg>
