<?xml version="1.0" encoding="iso-8859-1"?>
<!-- Generator: Adobe Illustrator 19.0.0, SVG Export Plug-In . SVG Version: 6.00 Build 0)  -->
<svg version="1.1" id="Layer_1" xmlns="http://www.w3.org/2000/svg" xmlns:xlink="http://www.w3.org/1999/xlink" x="0px" y="0px"
	 viewBox="0 0 460 460" style="enable-background:new 0 0 460 460;" xml:space="preserve">
<g id="XMLID_3068_">
	<path id="XMLID_2401_" style="fill:#526D75;" d="M460,60v370c0,16.569-13.431,30-30,30H30c-16.569,0-30-13.431-30-30V60
		c0-16.569,13.431-30,30-30h400C446.569,30,460,43.431,460,60z"/>
	<path id="XMLID_2404_" style="fill:#668084;" d="M400.276,30L0.007,430.27C0.006,430.179,0,430.09,0,430V60
		c0-16.569,13.431-30,30-30H400.276z"/>
	<path id="XMLID_2416_" style="fill:#3E494F;" d="M280,60H180c-5.523,0-10-4.477-10-10V10c0-5.523,4.477-10,10-10h100
		c5.523,0,10,4.477,10,10v40C290,55.523,285.523,60,280,60z"/>
	<path id="XMLID_2439_" style="fill:#2A3033;" d="M290,30v20c0,5.523-4.477,10-10,10H180c-5.523,0-10-4.477-10-10V30H290z"/>
	<path id="XMLID_2440_" style="fill:#B3E5D3;" d="M378.055,316.605v19.324c0,25.698-20.907,46.605-46.605,46.605
		c-15.193,0-29.164-7.415-37.781-19.324H166.332c-8.617,11.908-22.589,19.324-37.781,19.324c-25.698,0-46.606-20.907-46.606-46.605
		v-19.324c0-25.698,20.907-46.605,46.606-46.605c15.192,0,29.164,7.415,37.781,19.324h127.337
		c8.616-11.909,22.588-19.324,37.78-19.324C357.147,270,378.055,290.907,378.055,316.605z"/>
	<path id="XMLID_1279_" style="fill:#4E6863;" d="M360.435,320v15.929c0,16.008-12.977,28.986-28.985,28.986l0,0
		c-12.62,0-23.35-8.067-27.33-19.324H155.88c-3.98,11.256-14.71,19.324-27.33,19.324l0,0c-16.008,0-28.985-12.977-28.985-28.986V320
		H360.435z"/>
	<path id="XMLID_2442_" style="fill:#85AFA1;" d="M360.435,316.605v9.662H99.565v-9.662c0-16.008,12.977-28.986,28.986-28.986l0,0
		c12.62,0,23.35,8.067,27.33,19.324H304.12c3.98-11.257,14.71-19.324,27.33-19.324l0,0
		C347.458,287.62,360.435,300.597,360.435,316.605z"/>
	<path id="XMLID_2436_" style="fill:#B3E5D3;" d="M378.055,164.071v19.324c0,25.698-20.907,46.605-46.605,46.605
		c-15.193,0-29.164-7.415-37.781-19.324H166.332C157.715,222.585,143.743,230,128.551,230c-25.698,0-46.606-20.907-46.606-46.605
		v-19.324c0-25.698,20.907-46.605,46.606-46.605c15.192,0,29.164,7.415,37.781,19.324h127.337
		c8.617-11.908,22.588-19.324,37.781-19.324C357.147,117.466,378.055,138.373,378.055,164.071z"/>
	<path id="XMLID_1297_" style="fill:#4E6863;" d="M360.144,160c0.187,1.331,0.29,2.688,0.29,4.071v19.324
		c0,16.008-12.977,28.986-28.985,28.986l0,0c-12.62,0-23.35-8.067-27.33-19.324H155.88c-3.98,11.257-14.71,19.324-27.33,19.324l0,0
		c-16.008,0-28.985-12.977-28.985-28.986v-19.324c0-1.382,0.103-2.74,0.29-4.071L360.144,160L360.144,160z"/>
	<path id="XMLID_2438_" style="fill:#85AFA1;" d="M360.435,164.071v9.662H99.565v-9.662c0-16.008,12.977-28.986,28.986-28.986l0,0
		c12.62,0,23.35,8.067,27.33,19.324H304.12c3.98-11.256,14.71-19.324,27.33-19.324l0,0
		C347.458,135.085,360.435,148.063,360.435,164.071z"/>
</g>
<g>
</g>
<g>
</g>
<g>
</g>
<g>
</g>
<g>
</g>
<g>
</g>
<g>
</g>
<g>
</g>
<g>
</g>
<g>
</g>
<g>
</g>
<g>
</g>
<g>
</g>
<g>
</g>
<g>
</g>
</svg>
